<svg xmlns="http://www.w3.org/2000/svg" viewBox="0 0 78.93 78.52"><g id="Layer_2" data-name="Layer 2"><g id="Layer_1-2" data-name="Layer 1"><circle cx="48.93" cy="14" r="14" fill="#e6edf5" /><circle cx="12" cy="47.27" r="12" fill="#e6edf5"/><circle cx="58.93" cy="58.52" r="20" fill="#e6edf5"/><rect width="64" height="64" x="8.18" y="7.77" fill="#84b8e3" rx="18"/><path d="M26.18 7.77h23a16 16 0 0 1 16 16v26a15 15 0 0 1-15 15h-26a16 16 0 0 1-16-16v-23a18 18 0 0 1 18-18Z" fill="#ffffff"/><path d="M54.18 72.52h-28A18.78 18.78 0 0 1 7.43 53.77v-28A18.78 18.78 0 0 1 26.18 7h28a18.77 18.77 0 0 1 18.75 18.77v28a18.77 18.77 0 0 1-18.75 18.75Zm-28-64A17.27 17.27 0 0 0 8.93 25.77v28A17.27 17.27 0 0 0 26.18 71h28a17.27 17.27 0 0 0 17.25-17.23v-28A17.27 17.27 0 0 0 54.18 8.52Z" fill="#07074e" /><circle cx="40.18" cy="39.77" r="20" fill="#ffffff"/><path d="M51.6 23.36a20 20 0 0 1-27.83 27.82A20 20 0 1 0 51.6 23.36Z" fill="#84b8e3"/><path d="M40.18 60.52a20.75 20.75 0 1 1 20.75-20.75 20.78 20.78 0 0 1-20.75 20.75Zm0-40a19.25 19.25 0 1 0 19.25 19.25 19.27 19.27 0 0 0-19.25-19.25Z" fill="#07074e" /><circle cx="50.44" cy="32.52" r="2" fill="#ffffff"/><path d="M50.44 35.27a2.75 2.75 0 1 1 2.75-2.75 2.75 2.75 0 0 1-2.75 2.75Zm0-4a1.25 1.25 0 1 0 1.25 1.25 1.25 1.25 0 0 0-1.25-1.25Z" fill="#07074e" /><circle cx="60.18" cy="39.27" r="2" fill="#ffffff"/><path d="M60.18 42a2.75 2.75 0 1 1 2.75-2.75A2.76 2.76 0 0 1 60.18 42Zm0-4a1.25 1.25 0 1 0 1.25 1.25A1.26 1.26 0 0 0 60.18 38Z" fill="#07074e" /><circle cx="50" cy="14.75" r="2" fill="#84b8e3"/><path d="M50 17.5a2.75 2.75 0 1 1 2.75-2.75A2.75 2.75 0 0 1 50 17.5Zm0-4a1.25 1.25 0 1 0 1.25 1.25A1.25 1.25 0 0 0 50 13.5Z" fill="#07074e" /><circle cx="65.52" cy="25.98" r="2" fill="#ffffff"/><path d="M65.52 28.73A2.75 2.75 0 1 1 68.27 26a2.75 2.75 0 0 1-2.75 2.73Zm0-4A1.25 1.25 0 1 0 66.77 26a1.25 1.25 0 0 0-1.25-1.27Z" fill="#07074e" /><circle cx="28.69" cy="65.27" r="2" fill="#ffffff" /><path d="M28.69 68a2.75 2.75 0 1 1 2.75-2.75A2.76 2.76 0 0 1 28.69 68Zm0-4a1.25 1.25 0 1 0 1.25 1.25A1.25 1.25 0 0 0 28.69 64Z" fill="#07074e" /><circle cx="36.86" cy="50.02" r="2" fill="#84b8e3"/><path d="M36.86 52.77A2.75 2.75 0 1 1 39.61 50a2.75 2.75 0 0 1-2.75 2.77Zm0-4A1.25 1.25 0 1 0 38.11 50a1.25 1.25 0 0 0-1.25-1.23Z" fill="#07074e" /><circle cx="15.71" cy="50.67" r="2" fill="#84b8e3"/><path d="M15.71 53.42a2.75 2.75 0 1 1 2.75-2.75 2.76 2.76 0 0 1-2.75 2.75Zm0-4A1.25 1.25 0 1 0 17 50.67a1.25 1.25 0 0 0-1.29-1.25Z" fill="#07074e" /><circle cx="26.84" cy="54.79" r="2" fill="#ffffff" /><path d="M26.84 57.54a2.75 2.75 0 1 1 2.75-2.75 2.75 2.75 0 0 1-2.75 2.75Zm0-4a1.25 1.25 0 1 0 1.25 1.25 1.25 1.25 0 0 0-1.25-1.25Z" fill="#07074e" /><path d="m61.94 60.26-1.27 1.27a3 3 0 0 1-4.31-.08L29.85 33.1l3.66-3.66L61.87 56a3 3 0 0 1 .07 4.26Z" fill="#ffffff" /><path d="M59.2 59a1 1 0 0 1-1.43 0L31.18 31.77l-1.33 1.33 26.51 28.35a3 3 0 0 0 4.31.08l1.27-1.27a3 3 0 0 0 .11-4.11Z" fill="#84b8e3"/><path d="M58.55 63.16h-.06A3.72 3.72 0 0 1 55.81 62l-26.5-28.39a.74.74 0 0 1 0-1l3.69-3.7a.75.75 0 0 1 1 0L62.38 55.4a3.74 3.74 0 0 1 .09 5.39l-1.27 1.27a3.7 3.7 0 0 1-2.65 1.1Zm-27.65-30 26 27.83a2.22 2.22 0 0 0 1.6.71 2.13 2.13 0 0 0 1.64-.7l1.27-1.27a2.26 2.26 0 0 0 0-3.24l-27.83-26Zm31 27.15Z" fill="#07074e" /><path d="m18.88 18.46 9.03 3.07 7.65-5.71-.12 9.54 7.79 5.51-9.11 2.83-2.83 9.12-5.51-7.79-9.55.12 5.71-7.65-3.06-9.04z" fill="#ffffff" /><path d="M33.19 31a2 2 0 0 0-1.33 1.32l-1.21 3.88a.49.49 0 0 1-.88.14L27.41 33a2 2 0 0 0-1.66-.84l-7.35.09-2.17 2.9 9.55-.15 5.51 7.79 2.83-9.12 9.11-2.83-2.91-2.06Z" fill="#84b8e3"/><path d="M31.29 43.57a.75.75 0 0 1-.61-.32l-5.29-7.47-9.15.12a.73.73 0 0 1-.66-.41.75.75 0 0 1 .06-.79l5.48-7.33-2.95-8.67a.73.73 0 0 1 .18-.77.75.75 0 0 1 .77-.18l8.66 2.94 7.34-5.47a.75.75 0 0 1 .79-.07.74.74 0 0 1 .4.68L36.2 25l7.47 5.28A.77.77 0 0 1 44 31a.78.78 0 0 1-.52.6l-8.76 2.7L32 43a.75.75 0 0 1-.59.52Zm-5.51-9.29a.74.74 0 0 1 .61.31L31 41.14l2.39-7.66a.73.73 0 0 1 .51-.48l7.66-2.38L35 26a.75.75 0 0 1-.32-.62l.1-8-6.43 4.8a.74.74 0 0 1-.69.11l-7.59-2.58 2.57 7.6a.75.75 0 0 1-.11.69l-4.8 6.43 8-.1Z" fill="#07074e" /></g></g></svg>
