<svg xmlns="http://www.w3.org/2000/svg" viewBox="0 0 82.25 77.4"><g id="Layer_2" data-name="Layer 2"><g id="Layer_1-2" data-name="Layer 1"><circle cx="32.5" cy="63.4" r="14" fill="#e6edf5"/><circle cx="70.25" cy="31.03" r="12" fill="#e6edf5"/><circle cx="20" cy="20" r="20" fill="#e6edf5"/><rect width="44" height="64" x="30.25" y="6.15" fill="#84b8e3" rx="4"/><path d="M30.25 62.15h40v4a2 2 0 0 1-2 2h-37a1 1 0 0 1-1-1v-5ZM34.25 6.15h36v4a2 2 0 0 1-2 2h-38v-2a4 4 0 0 1 4-4Z" fill="#ffffff"/><path d="M70.25 70.9h-36a4.75 4.75 0 0 1-4.75-4.75v-56a4.76 4.76 0 0 1 4.75-4.75h36A4.76 4.76 0 0 1 75 10.15v56a4.75 4.75 0 0 1-4.75 4.75Zm-36-64A3.26 3.26 0 0 0 31 10.15v56a3.25 3.25 0 0 0 3.25 3.25h36a3.25 3.25 0 0 0 3.25-3.25v-56a3.26 3.26 0 0 0-3.25-3.25Z" fill="#07074e"/><rect width="44" height="48" x="30.25" y="14.15" fill="#84b8e3" rx="2"/><path d="M32.25 14.15h39v40a5 5 0 0 1-5 5h-36v-43a2 2 0 0 1 2-2Z" fill="#ffffff"/><path d="M72.25 62.9h-40a2.75 2.75 0 0 1-2.75-2.75v-44a2.75 2.75 0 0 1 2.75-2.75h40A2.75 2.75 0 0 1 75 16.15v44a2.75 2.75 0 0 1-2.75 2.75Zm-40-48A1.25 1.25 0 0 0 31 16.15v44a1.25 1.25 0 0 0 1.25 1.25h40a1.25 1.25 0 0 0 1.25-1.25v-44a1.25 1.25 0 0 0-1.25-1.25ZM57.82 10.9h-10a.75.75 0 0 1 0-1.5h10a.75.75 0 0 1 0 1.5ZM54.82 66.9h-4a.75.75 0 1 1 0-1.5h4a.75.75 0 0 1 0 1.5ZM64.82 66.9h-4a.75.75 0 1 1 0-1.5h4a.75.75 0 0 1 0 1.5ZM44.82 66.9h-4a.75.75 0 1 1 0-1.5h4a.75.75 0 0 1 0 1.5ZM62.82 10.15a1 1 0 1 1-1-1 1 1 0 0 1 1 1Z" fill="#07074e"/><rect width="6" height="6" x="10.25" y="20.15" fill="#84b8e3" rx="2"/><path d="M12.25 20.15h2v3a1 1 0 0 1-1 1h-3v-2a2 2 0 0 1 2-2Z" fill="#ffffff"/><path d="M14.25 26.9h-2a2.75 2.75 0 0 1-2.75-2.75v-2a2.75 2.75 0 0 1 2.75-2.75h2A2.75 2.75 0 0 1 17 22.15v2a2.75 2.75 0 0 1-2.75 2.75Zm-2-6A1.25 1.25 0 0 0 11 22.15v2a1.25 1.25 0 0 0 1.25 1.25h2a1.25 1.25 0 0 0 1.25-1.25v-2a1.25 1.25 0 0 0-1.25-1.25Z" fill="#07074e"/><rect width="6" height="6" x="10.25" y="40.16" fill="#84b8e3" rx="2"/><path d="M12.25 40.16h2v3a1 1 0 0 1-1 1h-3v-2a2 2 0 0 1 2-2Z" fill="#ffffff"/><path d="M14.25 46.91h-2a2.75 2.75 0 0 1-2.75-2.75v-2a2.75 2.75 0 0 1 2.75-2.75h2A2.75 2.75 0 0 1 17 42.16v2a2.75 2.75 0 0 1-2.75 2.75Zm-2-6A1.25 1.25 0 0 0 11 42.16v2a1.26 1.26 0 0 0 1.25 1.25h2a1.26 1.26 0 0 0 1.25-1.25v-2a1.25 1.25 0 0 0-1.25-1.25Z" fill="#07074e"/><rect width="6" height="6" x="10.25" y="50.16" fill="#84b8e3" rx="2"/><path d="M12.25 50.16h2v3a1 1 0 0 1-1 1h-3v-2a2 2 0 0 1 2-2Z" fill="#ffffff"/><path d="M14.25 56.91h-2a2.75 2.75 0 0 1-2.75-2.75v-2a2.75 2.75 0 0 1 2.75-2.75h2A2.75 2.75 0 0 1 17 52.16v2a2.75 2.75 0 0 1-2.75 2.75Zm-2-6A1.25 1.25 0 0 0 11 52.16v2a1.25 1.25 0 0 0 1.25 1.25h2a1.25 1.25 0 0 0 1.25-1.25v-2a1.25 1.25 0 0 0-1.25-1.25Z" fill="#07074e"/><path d="M66.25 20.15h-44a2 2 0 0 0-2 2v6a2 2 0 0 1-2 2h-6a2 2 0 0 0-2 2v2a2 2 0 0 0 2 2h6a2 2 0 0 1 2 2v16a2 2 0 0 0 2 2h44a2 2 0 0 0 2-2v-32a2 2 0 0 0-2-2Z" fill="#84b8e3"/><path d="M65.25 20.15h-43a2 2 0 0 0-2 2v6a2 2 0 0 1-2 2h-6a2 2 0 0 0-2 2v2a2 2 0 0 0 2 2h6a2 2 0 0 1 2 2v15h44a1 1 0 0 0 1-1Z" fill="#ffffff"/><path d="M66.25 56.9h-44a2.75 2.75 0 0 1-2.75-2.75v-16a1.25 1.25 0 0 0-1.25-1.25h-6a2.75 2.75 0 0 1-2.75-2.75v-2a2.75 2.75 0 0 1 2.75-2.75h6a1.25 1.25 0 0 0 1.25-1.25v-6a2.75 2.75 0 0 1 2.75-2.75h44A2.75 2.75 0 0 1 69 22.15v32a2.75 2.75 0 0 1-2.75 2.75Zm-54-26A1.25 1.25 0 0 0 11 32.15v2a1.25 1.25 0 0 0 1.25 1.25h6A2.75 2.75 0 0 1 21 38.15v16a1.25 1.25 0 0 0 1.25 1.25h44a1.25 1.25 0 0 0 1.25-1.25v-32a1.25 1.25 0 0 0-1.25-1.25h-44A1.25 1.25 0 0 0 21 22.15v6a2.75 2.75 0 0 1-2.75 2.75Z" fill="#07074e"/><path d="M42.25 52.91H42a.75.75 0 0 1-.75-.75.73.73 0 0 1 .36-.64.74.74 0 0 1 .64-.36.75.75 0 0 1 .75.75v.25a.76.76 0 0 1-.75.75ZM38.91 52.91h-.51a.75.75 0 0 1 0-1.5h.51a.75.75 0 0 1 0 1.5Zm-3.6 0h-.52a.75.75 0 1 1 0-1.5h.52a.75.75 0 0 1 0 1.5Zm-3.6 0h-.52a.75.75 0 1 1 0-1.5h.52a.75.75 0 1 1 0 1.5Zm-3.61 0h-.51a.75.75 0 0 1 0-1.5h.51a.75.75 0 0 1 0 1.5ZM24.5 52.91h-.25a.76.76 0 0 1-.75-.75v-.25a.75.75 0 0 1 .75-.75.74.74 0 0 1 .64.36.73.73 0 0 1 .36.64.75.75 0 0 1-.75.75ZM24.25 50.12a.76.76 0 0 1-.75-.75v-.43a.75.75 0 0 1 1.5 0v.43a.75.75 0 0 1-.75.75ZM24.25 47.16a.76.76 0 0 1-.75-.75v-.25a.75.75 0 0 1 .75-.75h.25a.75.75 0 0 1 .39 1.39.76.76 0 0 1-.64.36ZM38.91 46.91h-.51a.75.75 0 0 1 0-1.5h.51a.75.75 0 0 1 0 1.5Zm-3.6 0h-.52a.75.75 0 1 1 0-1.5h.52a.75.75 0 0 1 0 1.5Zm-3.6 0h-.52a.75.75 0 1 1 0-1.5h.52a.75.75 0 1 1 0 1.5Zm-3.61 0h-.51a.75.75 0 0 1 0-1.5h.51a.75.75 0 0 1 0 1.5ZM42.25 47.16a.76.76 0 0 1-.64-.36.75.75 0 0 1 .39-1.39h.25a.75.75 0 0 1 .75.75v.25a.76.76 0 0 1-.75.75ZM42.25 50.12a.75.75 0 0 1-.75-.75v-.43a.75.75 0 0 1 1.5 0v.43a.76.76 0 0 1-.75.75Z" fill="#07074e"/><path d="M42.13 34.62a9 9 0 0 0 0-2.93l-3.07-.48a5.48 5.48 0 0 0-.33-.79l1.83-2.51a8.84 8.84 0 0 0-2.07-2.07L36 27.67a5 5 0 0 0-.79-.33l-.48-3.07a8.9 8.9 0 0 0-1.46-.12 8.72 8.72 0 0 0-1.46.12l-.49 3.07a7.68 7.68 0 0 0-.79.32L28 25.84a9 9 0 0 0-2.06 2.07l1.82 2.51a5.48 5.48 0 0 0-.33.79l-3.06.48a9 9 0 0 0 0 2.93l3.06.48a5.48 5.48 0 0 0 .33.79l-1.82 2.51A9.2 9.2 0 0 0 28 40.47l2.51-1.83a6 6 0 0 0 .79.33l.49 3.03a9.93 9.93 0 0 0 1.46.11 10.14 10.14 0 0 0 1.46-.11l.48-3a5 5 0 0 0 .79-.33l2.51 1.83a9 9 0 0 0 2.07-2.07l-1.83-2.51a5.48 5.48 0 0 0 .33-.79Z" fill="#ffffff"/><path d="M42.13 34.62a9 9 0 0 0 0-2.93l-3.07-.48A2.18 2.18 0 0 0 39 31a9 9 0 0 1-7.9 7.9c.08 0 .15.07.23.09l.46 3.01a9.93 9.93 0 0 0 1.46.11 10.14 10.14 0 0 0 1.46-.11l.48-3a5 5 0 0 0 .79-.33l2.51 1.83a9 9 0 0 0 2.07-2.07l-1.83-2.51a5.48 5.48 0 0 0 .33-.79Z" fill="#84b8e3"/><path d="M33.25 42.9a10.22 10.22 0 0 1-1.58-.12.77.77 0 0 1-.62-.63l-.42-2.63-2.16 1.56a.75.75 0 0 1-.88 0 9.87 9.87 0 0 1-2.23-2.24.75.75 0 0 1 0-.88l1.56-2.16-2.63-.41a.74.74 0 0 1-.62-.62 9.47 9.47 0 0 1-.13-1.59 9.36 9.36 0 0 1 .13-1.58.74.74 0 0 1 .62-.62l2.63-.41-1.56-2.15a.75.75 0 0 1 0-.88 9.87 9.87 0 0 1 2.23-2.24.75.75 0 0 1 .88 0l2.13 1.5.42-2.63a.77.77 0 0 1 .61-.63 9.92 9.92 0 0 1 3.17 0 .77.77 0 0 1 .62.63l.42 2.63 2.15-1.56a.74.74 0 0 1 .88 0 9.92 9.92 0 0 1 2.24 2.24.77.77 0 0 1 0 .88L39.6 30.5l2.63.41a.77.77 0 0 1 .63.62 9.73 9.73 0 0 1 0 3.17.77.77 0 0 1-.63.62l-2.63.41L41.16 38a.77.77 0 0 1 0 .88 9.92 9.92 0 0 1-2.24 2.24.75.75 0 0 1-.88 0l-2.14-1.61-.42 2.63a.77.77 0 0 1-.62.63 10.41 10.41 0 0 1-1.61.13Zm-.81-1.54a7.22 7.22 0 0 0 1.61 0l.4-2.51a.77.77 0 0 1 .51-.59 5.79 5.79 0 0 0 .68-.29.76.76 0 0 1 .78.07l2.06 1.49a8.19 8.19 0 0 0 1.14-1.14l-1.49-2.06a.76.76 0 0 1-.07-.78 5.28 5.28 0 0 0 .29-.69.75.75 0 0 1 .6-.5l2.51-.4v-1.61L39 32a.77.77 0 0 1-.6-.5 6.07 6.07 0 0 0-.29-.7.74.74 0 0 1 .07-.77l1.49-2.06a7.68 7.68 0 0 0-1.14-1.14l-2.06 1.49a.74.74 0 0 1-.77.07 5.28 5.28 0 0 0-.69-.29.77.77 0 0 1-.51-.59l-.4-2.52a8.66 8.66 0 0 0-1.61 0L32 27.46a.75.75 0 0 1-.5.59 5.42 5.42 0 0 0-.7.29.74.74 0 0 1-.77-.07L28 26.78a8.19 8.19 0 0 0-1.14 1.14L28.37 30a.76.76 0 0 1 .06.78 5.79 5.79 0 0 0-.29.68.74.74 0 0 1-.59.51l-2.51.4A8.12 8.12 0 0 0 25 34l2.51.4a.74.74 0 0 1 .59.51 5.79 5.79 0 0 0 .29.68.76.76 0 0 1-.06.78l-1.5 2.06a8.77 8.77 0 0 0 1.17 1.1L30.07 38a.75.75 0 0 1 .79-.06 4.61 4.61 0 0 0 .68.28.75.75 0 0 1 .5.59Zm9.69-6.74Z" fill="#07074e"/><circle cx="33.25" cy="33.15" r="2.5" fill="#ffffff"/><path d="M34.36 30.93a2.43 2.43 0 0 1 .28 1.07 2.5 2.5 0 0 1-2.5 2.5 2.47 2.47 0 0 1-1.14-.23 2.49 2.49 0 1 0 3.34-3.34Z" fill="#84b8e3"/><path d="M33.25 36.4a3.25 3.25 0 1 1 3.25-3.25 3.25 3.25 0 0 1-3.25 3.25Zm0-5A1.75 1.75 0 1 0 35 33.15a1.75 1.75 0 0 0-1.75-1.75ZM63.25 26.4h-3.84a.75.75 0 0 1 0-1.5h3.84a.75.75 0 0 1 0 1.5ZM56.4 26.4h-5.15a.75.75 0 0 1 0-1.5h5.15a.75.75 0 0 1 0 1.5ZM48.25 26.4h-1a.75.75 0 0 1 0-1.5h1a.75.75 0 0 1 0 1.5ZM59.25 31.4h-8a.75.75 0 0 1 0-1.5h8a.75.75 0 0 1 0 1.5ZM63.25 36.4h-5.84a.75.75 0 0 1 0-1.5h5.84a.75.75 0 0 1 0 1.5ZM54.4 36.4h-3.15a.75.75 0 0 1 0-1.5h3.15a.75.75 0 0 1 0 1.5ZM48.25 36.4h-1a.75.75 0 0 1 0-1.5h1a.75.75 0 0 1 0 1.5ZM60.25 41.4h-9a.75.75 0 0 1 0-1.5h9a.75.75 0 0 1 0 1.5ZM61.25 46.4h-3.84a.75.75 0 0 1 0-1.5h3.84a.75.75 0 0 1 0 1.5ZM54.4 46.4h-3.15a.75.75 0 0 1 0-1.5h3.15a.75.75 0 0 1 0 1.5ZM63.25 51.41h-3.84a.75.75 0 0 1 0-1.5h3.84a.75.75 0 0 1 0 1.5ZM56.41 51.41h-5.16a.75.75 0 0 1 0-1.5h5.16a.75.75 0 0 1 0 1.5ZM48.25 51.41h-1a.75.75 0 0 1 0-1.5h1a.75.75 0 0 1 0 1.5ZM25.25 62.9h-4a.75.75 0 0 1 0-1.5h4a.75.75 0 1 1 0 1.5Z" fill="#07074e"/><path d="M23.25 64.9a.75.75 0 0 1-.75-.75v-4a.75.75 0 0 1 1.5 0v4a.75.75 0 0 1-.75.75ZM16.25 66.9h-4a.75.75 0 0 1 0-1.5h4a.75.75 0 0 1 0 1.5Z" fill="#07074e"/><path d="M14.25 68.9a.75.75 0 0 1-.75-.75v-4a.75.75 0 0 1 1.5 0v4a.75.75 0 0 1-.75.75ZM21.25 14.9h-4a.75.75 0 0 1 0-1.5h4a.75.75 0 0 1 0 1.5Z" fill="#07074e"/><path d="M19.25 16.9a.76.76 0 0 1-.75-.75v-4a.75.75 0 1 1 1.5 0v4a.76.76 0 0 1-.75.75ZM14.25 8.9h-4a.75.75 0 0 1 0-1.5h4a.75.75 0 0 1 0 1.5Z" fill="#07074e"/><path d="M12.25 10.9a.76.76 0 0 1-.75-.75v-4a.75.75 0 1 1 1.5 0v4a.76.76 0 0 1-.75.75Z" fill="#07074e"/></g></g></svg>
