<svg xmlns="http://www.w3.org/2000/svg" viewBox="0 0 80.5 80.5"><g id="Layer_2" data-name="Layer 2"><g id="Layer_1-2" data-name="Layer 1"><circle cx="38.75" cy="66.5" r="14" fill="#e6edf5"/><circle cx="12" cy="24.5" r="12" fill="#e6edf5"/><circle cx="60.5" cy="20" r="20" fill="#e6edf5"/><path d="M70.75 73.25h-62a1 1 0 0 1-1-1v-51l12-12h51a1 1 0 0 1 1 1v62a1 1 0 0 1-1 1Z" fill="#84b8e3"/><path d="M65.75 68.25h-58v-47l12-12h47v58a1 1 0 0 1-1 1Z" fill="#ffffff"/><path d="M70.75 74h-62A1.75 1.75 0 0 1 7 72.25v-51a.75.75 0 0 1 .22-.53l12-12a.75.75 0 0 1 .53-.22h51a1.75 1.75 0 0 1 1.75 1.75v62A1.75 1.75 0 0 1 70.75 74ZM8.5 21.56v50.69a.25.25 0 0 0 .25.25h62a.25.25 0 0 0 .25-.25v-62a.25.25 0 0 0-.25-.25H20.06Z" fill="#07074e"/><path d="M58.75 61h-2a.75.75 0 0 1 0-1.5H58v-1.25a.75.75 0 0 1 1.5 0v2a.75.75 0 0 1-.75.75ZM53 61h-3.8a.75.75 0 0 1 0-1.5H53a.75.75 0 0 1 0 1.5Zm-7.55 0h-3.81a.75.75 0 0 1 0-1.5h3.78a.75.75 0 0 1 0 1.5Zm-7.56 0h-3.81a.75.75 0 0 1 0-1.5h3.78a.75.75 0 0 1 0 1.5Zm-7.55 0h-3.81a.75.75 0 0 1 0-1.5h3.78a.75.75 0 1 1 0 1.5ZM22.75 61h-2a.75.75 0 0 1-.75-.75v-2a.75.75 0 0 1 1.5 0v1.25h1.25a.75.75 0 0 1 0 1.5ZM20.75 55.22a.75.75 0 0 1-.75-.75V50.7a.75.75 0 0 1 1.5 0v3.77a.75.75 0 0 1-.75.75Zm0-7.55a.76.76 0 0 1-.75-.75v-3.78a.75.75 0 0 1 1.5 0v3.78a.76.76 0 0 1-.75.75Zm0-7.56a.75.75 0 0 1-.75-.75v-3.77a.75.75 0 0 1 1.5 0v3.77a.75.75 0 0 1-.75.75Zm0-7.55a.76.76 0 0 1-.75-.75V28a.75.75 0 0 1 1.5 0v3.78a.76.76 0 0 1-.75.78ZM20.75 25a.75.75 0 0 1-.75-.75v-2a.76.76 0 0 1 .75-.75h2a.75.75 0 0 1 0 1.5H21.5v1.25a.75.75 0 0 1-.75.75ZM53 23h-3.81a.75.75 0 0 1 0-1.5H53a.75.75 0 0 1 0 1.5Zm-7.55 0h-3.81a.75.75 0 0 1 0-1.5h3.78a.75.75 0 0 1 0 1.5Zm-7.56 0h-3.81a.75.75 0 0 1 0-1.5h3.78a.75.75 0 0 1 0 1.5Zm-7.55 0h-3.81a.75.75 0 0 1 0-1.5h3.78a.75.75 0 1 1 0 1.5ZM58.75 25a.75.75 0 0 1-.75-.75V23h-1.25a.75.75 0 0 1 0-1.5h2a.76.76 0 0 1 .75.75v2a.75.75 0 0 1-.75.75ZM58.75 55.22a.75.75 0 0 1-.75-.75V50.7a.75.75 0 0 1 1.5 0v3.77a.75.75 0 0 1-.75.75Zm0-7.55a.76.76 0 0 1-.75-.75v-3.78a.75.75 0 0 1 1.5 0v3.78a.76.76 0 0 1-.75.75Zm0-7.56a.75.75 0 0 1-.75-.75v-3.77a.75.75 0 0 1 1.5 0v3.77a.75.75 0 0 1-.75.75Zm0-7.55a.76.76 0 0 1-.75-.75V28a.75.75 0 0 1 1.5 0v3.78a.76.76 0 0 1-.75.78Z" fill="#07074e"/><rect width="6" height="6" x="17.75" y="19.25" fill="#84b8e3" rx="1"/><path d="M18.75 19.25h3v3a1 1 0 0 1-1 1h-3v-3a1 1 0 0 1 1-1Z" fill="#ffffff"/><path d="M22.75 26h-4A1.75 1.75 0 0 1 17 24.25v-4a1.75 1.75 0 0 1 1.75-1.75h4a1.76 1.76 0 0 1 1.75 1.75v4A1.76 1.76 0 0 1 22.75 26Zm-4-6a.25.25 0 0 0-.25.25v4a.25.25 0 0 0 .25.25h4a.25.25 0 0 0 .25-.25v-4a.25.25 0 0 0-.25-.25Z" fill="#07074e"/><rect width="6" height="6" x="55.75" y="19.25" fill="#84b8e3" rx="1"/><path d="M56.75 19.25h3v3a1 1 0 0 1-1 1h-3v-3a1 1 0 0 1 1-1Z" fill="#ffffff"/><path d="M60.75 26h-4A1.76 1.76 0 0 1 55 24.25v-4a1.76 1.76 0 0 1 1.75-1.75h4a1.75 1.75 0 0 1 1.75 1.75v4A1.75 1.75 0 0 1 60.75 26Zm-4-6a.25.25 0 0 0-.25.25v4a.25.25 0 0 0 .25.25h4a.25.25 0 0 0 .25-.25v-4a.25.25 0 0 0-.25-.25Z" fill="#07074e"/><rect width="6" height="6" x="17.75" y="57.25" fill="#84b8e3" rx="1"/><path d="M18.75 57.25h3v3a1 1 0 0 1-1 1h-3v-3a1 1 0 0 1 1-1Z" fill="#ffffff"/><path d="M22.75 64h-4A1.75 1.75 0 0 1 17 62.25v-4a1.75 1.75 0 0 1 1.75-1.75h4a1.76 1.76 0 0 1 1.75 1.75v4A1.75 1.75 0 0 1 22.75 64Zm-4-6a.25.25 0 0 0-.25.25v4a.25.25 0 0 0 .25.25h4a.25.25 0 0 0 .25-.25v-4a.25.25 0 0 0-.25-.25Z" fill="#07074e"/><rect width="6" height="6" x="55.75" y="57.25" fill="#84b8e3" rx="1"/><path d="M56.75 57.25h3v3a1 1 0 0 1-1 1h-3v-3a1 1 0 0 1 1-1Z" fill="#ffffff"/><path d="M60.75 64h-4A1.75 1.75 0 0 1 55 62.25v-4a1.76 1.76 0 0 1 1.75-1.75h4a1.75 1.75 0 0 1 1.75 1.75v4A1.75 1.75 0 0 1 60.75 64Zm-4-6a.25.25 0 0 0-.25.25v4a.25.25 0 0 0 .25.25h4a.25.25 0 0 0 .25-.25v-4a.25.25 0 0 0-.25-.25Z" fill="#07074e"/><path d="m7.75 21.25 12-12v12h-12z" fill="#84b8e3"/><path d="m7.75 21.25 12-12-5 12h-7z" fill="#ffffff"/><path d="M19.75 22h-12a.74.74 0 0 1-.69-.46.76.76 0 0 1 .16-.82l12-12a.76.76 0 0 1 .78-.16.74.74 0 0 1 .46.69v12a.75.75 0 0 1-.71.75ZM9.56 20.5H19v-9.44Z" fill="#07074e"/><path d="M47.32 55.25h5.43l-8-28h-10l-8 28h5.43l1.94-6.79h11.26l1.94 6.79z" fill="#84b8e3"/><path d="M26.75 55.25h5.43l.53-2h-5.39l-.57 2zM44.75 27.25h-2.43l7.25 25.36a.5.5 0 0 1-.48.64h-2.34l.57 2h5.43Z" fill="#84b8e3"/><path d="M52.75 56h-5.43a.75.75 0 0 1-.72-.54l-1.79-6.25H34.69l-1.79 6.25a.75.75 0 0 1-.72.54h-5.43a.75.75 0 0 1-.6-.3.72.72 0 0 1-.12-.65l8-28a.75.75 0 0 1 .72-.55h10a.75.75 0 0 1 .72.55l8 28a.72.72 0 0 1-.12.65.74.74 0 0 1-.6.3Zm-4.86-1.5h3.87L44.18 28h-8.86l-7.58 26.5h3.87l1.79-6.25a.75.75 0 0 1 .72-.54h11.26a.74.74 0 0 1 .72.54Z" fill="#07074e"/><path d="m35.55 43.46 3.2-11.21h2l3.2 11.21h-8.4z" fill="#ffffff"/><path d="m44 43.46-3.2-11.21h-2l-.21.76 2.23 7.81a.5.5 0 0 1-.48.64h-4.22l-.57 2Z" fill="#84b8e3"/><path d="M44 44.21h-8.4a.75.75 0 0 1-.72-1L38 32.05a.75.75 0 0 1 .72-.55h2a.75.75 0 0 1 .72.55l3.2 11.2a.75.75 0 0 1-.72 1Zm-7.41-1.5H43L40.18 33h-.86ZM12.75 62a.75.75 0 0 1-.75-.75v-13.7a.75.75 0 0 1 1.5 0v13.7a.74.74 0 0 1-.75.75ZM12.75 44.3a.75.75 0 0 1-.75-.75v-2.3a.75.75 0 0 1 1.5 0v2.3a.74.74 0 0 1-.75.75ZM66.75 47a.75.75 0 0 1-.75-.75v-9.7a.75.75 0 0 1 1.5 0v9.7a.75.75 0 0 1-.75.75ZM66.75 33.3a.75.75 0 0 1-.75-.75v-2.3a.75.75 0 0 1 1.5 0v2.3a.75.75 0 0 1-.75.75Z" fill="#07074e"/></g></g></svg>
