<svg xmlns="http://www.w3.org/2000/svg" viewBox="0 0 80.32 80.83"><g id="Layer_2" data-name="Layer 2"><g id="Layer_1-2" data-name="Layer 1"><circle cx="30.06" cy="66.83" r="14" fill="#e6edf5"/><circle cx="68.32" cy="41.57" r="12" fill="#e6edf5"/><circle cx="20" cy="20" r="20" fill="#e6edf5"/><rect width="50" height="62" x="8.81" y="11.07" fill="#84b8e3" rx="2"/><path d="M10.81 11.07h45v58a1 1 0 0 1-1 1h-46v-57a2 2 0 0 1 2-2Z" fill="#ffffff"/><path d="M56.81 73.82h-46a2.75 2.75 0 0 1-2.75-2.75v-58a2.76 2.76 0 0 1 2.75-2.75h46a2.75 2.75 0 0 1 2.75 2.75v58a2.75 2.75 0 0 1-2.75 2.75Zm-46-62a1.25 1.25 0 0 0-1.25 1.25v58a1.25 1.25 0 0 0 1.25 1.25h46a1.25 1.25 0 0 0 1.25-1.25v-58a1.25 1.25 0 0 0-1.25-1.25Z" fill="#07074e"/><path d="M13.82 13.82a.74.74 0 0 1-.75-.75v-4a.75.75 0 0 1 1.5 0v4a.75.75 0 0 1-.75.75ZM20.48 13.82a.75.75 0 0 1-.75-.75v-4a.75.75 0 0 1 1.5 0v4a.74.74 0 0 1-.75.75ZM27.15 13.82a.75.75 0 0 1-.75-.75v-4a.75.75 0 0 1 1.5 0v4a.75.75 0 0 1-.75.75ZM33.82 13.82a.74.74 0 0 1-.75-.75v-4a.75.75 0 0 1 1.5 0v4a.75.75 0 0 1-.75.75ZM40.48 13.82a.75.75 0 0 1-.75-.75v-4a.75.75 0 0 1 1.5 0v4a.74.74 0 0 1-.75.75ZM47.15 13.82a.75.75 0 0 1-.75-.75v-4a.75.75 0 0 1 1.5 0v4a.75.75 0 0 1-.75.75ZM53.82 13.82a.74.74 0 0 1-.75-.75v-4a.75.75 0 0 1 1.5 0v4a.75.75 0 0 1-.75.75Z" fill="#07074e"/><path d="M14.81 26.08v36h5.01v-34l-5.01-2z" fill="#84b8e3"/><path d="M14.82 26.08v34h2a1 1 0 0 0 1-1v-31.8Z" fill="#ffffff"/><path d="M19.82 62.83h-5a.75.75 0 0 1-.75-.75v-36a.74.74 0 0 1 1-.7l5 2a.76.76 0 0 1 .48.7v34a.76.76 0 0 1-.73.75Zm-4.25-1.5h3.5V28.58l-3.5-1.4Z" fill="#07074e"/><path d="m24.82 26.08-5 2v34h5v-36z" fill="#84b8e3"/><path d="m22.82 26.88-3 1.2v32h2a1 1 0 0 0 1-1Z" fill="#ffffff"/><path d="M24.82 62.83h-5a.75.75 0 0 1-.75-.75v-34a.75.75 0 0 1 .47-.7l5-2a.76.76 0 0 1 1 .7v36a.76.76 0 0 1-.72.75Zm-4.25-1.5h3.5V27.18l-3.5 1.4Z" fill="#07074e"/><path d="M25.82 62.83h-12a.75.75 0 0 1 0-1.5h12a.75.75 0 1 1 0 1.5Z" fill="#07074e"/><path d="m14.81 26.08 5.01 2 5-2-5-7-5.01 7z" fill="#84b8e3"/><path d="m16.48 23.74 2.59 1a2 2 0 0 0 1.49 0l2.59-1-3.33-4.66Z" fill="#ffffff"/><path d="M19.82 28.83a.67.67 0 0 1-.28-.06l-5-2a.7.7 0 0 1-.44-.48.72.72 0 0 1 .11-.65l5-7a.78.78 0 0 1 1.22 0l5 7a.79.79 0 0 1 .11.65.74.74 0 0 1-.45.48l-5 2a.66.66 0 0 1-.27.06ZM16 25.74l3.84 1.53 3.83-1.53-3.83-5.37Z" fill="#07074e"/><path d="M14.82 62.08h10v3a2 2 0 0 1-2 2h-6a2 2 0 0 1-2-2v-3Z" fill="#84b8e3"/><path d="M14.82 62.08h8v2a1 1 0 0 1-1 1h-7v-3Z" fill="#84b8e3"/><path d="M22.82 67.83h-6a2.75 2.75 0 0 1-2.75-2.75v-3a.74.74 0 0 1 .75-.75h10a.75.75 0 0 1 .75.75v3a2.76 2.76 0 0 1-2.75 2.75Zm-7.25-5v2.25a1.26 1.26 0 0 0 1.25 1.25h6a1.26 1.26 0 0 0 1.25-1.25v-2.25Z" fill="#07074e"/><rect width="32" height="18" x="40.81" y="20.07" fill="#84b8e3" rx="1"/><path d="M41.81 20.07h28v14a1 1 0 0 1-1 1h-28v-14a1 1 0 0 1 1-1Z" fill="#ffffff"/><path d="M71.81 38.82h-30a1.75 1.75 0 0 1-1.75-1.75v-16a1.76 1.76 0 0 1 1.75-1.75h30a1.75 1.75 0 0 1 1.75 1.75v16a1.75 1.75 0 0 1-1.75 1.75Zm-30-18a.25.25 0 0 0-.25.25v16a.25.25 0 0 0 .25.25h30a.25.25 0 0 0 .25-.25v-16a.25.25 0 0 0-.25-.25Z" fill="#07074e"/><path d="M62.81 31.82h-6a.75.75 0 0 1 0-1.5h6a.75.75 0 0 1 0 1.5ZM66.81 27.82h-4a.75.75 0 0 1 0-1.5h4a.75.75 0 0 1 0 1.5ZM59.81 27.82h-3a.75.75 0 0 1 0-1.5h3a.75.75 0 0 1 0 1.5ZM51.81 29.82h-1.38a.75.75 0 0 1 0-1.5h1.38a.75.75 0 0 1 0 1.5ZM47.2 29.82h-1.39a.75.75 0 0 1 0-1.5h1.39a.75.75 0 0 1 0 1.5ZM48.81 32.82a.75.75 0 0 1-.75-.75v-1.38a.75.75 0 1 1 1.5 0v1.38a.74.74 0 0 1-.75.75ZM48.81 28.21a.76.76 0 0 1-.75-.75v-1.39a.75.75 0 1 1 1.5 0v1.39a.75.75 0 0 1-.75.75Z" fill="#07074e"/><path d="M30.81 45.08h42v20h-42z" fill="#84b8e3"/><path d="M30.81 45.08h39v16a1 1 0 0 1-1 1h-38v-17Z" fill="#ffffff"/><path d="M72.81 65.83h-42a.76.76 0 0 1-.75-.75v-20a.75.75 0 0 1 .75-.75h42a.74.74 0 0 1 .75.75v20a.75.75 0 0 1-.75.75Zm-41.25-1.5h40.5v-18.5h-40.5Z" fill="#07074e"/><path d="m51.81 55.07-21-9.99h42l-21 9.99z" fill="#84b8e3"/><path d="m48.81 53.65-18-8.57h36l-18 8.57z" fill="#ffffff"/><path d="M51.81 55.82a.71.71 0 0 1-.32-.07l-21-10a.77.77 0 0 1-.41-.84.75.75 0 0 1 .73-.58h42a.75.75 0 0 1 .33 1.42l-21 10a.78.78 0 0 1-.33.07Zm-17.68-10 17.68 8.41 17.68-8.41ZM64.81 60.83h-6a.75.75 0 0 1 0-1.5h6a.75.75 0 0 1 0 1.5ZM68.81 56.83h-4a.75.75 0 0 1 0-1.5h4a.75.75 0 0 1 0 1.5ZM61.81 56.83h-3a.75.75 0 0 1 0-1.5h3a.75.75 0 0 1 0 1.5ZM40.81 58.83h-1.38a.75.75 0 1 1 0-1.5h1.38a.75.75 0 0 1 0 1.5ZM36.2 58.83h-1.39a.75.75 0 0 1 0-1.5h1.39a.75.75 0 0 1 0 1.5ZM37.81 61.83a.76.76 0 0 1-.75-.75v-1.39a.75.75 0 0 1 1.5 0v1.39a.75.75 0 0 1-.75.75ZM37.81 57.21a.76.76 0 0 1-.75-.75v-1.38a.75.75 0 0 1 1.5 0v1.38a.75.75 0 0 1-.75.75ZM5.81 40.13h-4a.75.75 0 0 1 0-1.5h4a.75.75 0 1 1 0 1.5Z" fill="#07074e"/><path d="M3.81 42.13a.76.76 0 0 1-.75-.75v-4a.75.75 0 1 1 1.5 0v4a.75.75 0 0 1-.75.75Z" fill="#07074e"/><circle cx="3.81" cy="45.38" r=".75" fill="#07074e"/><circle cx="3.81" cy="48.38" r=".75" fill="#07074e"/><circle cx="3.81" cy="52.38" r=".75" fill="#07074e"/><circle cx="3.81" cy="58.38" r=".75" fill="#07074e"/></g></g></svg>
