<svg xmlns="http://www.w3.org/2000/svg" viewBox="0 0 78.5 77.77"><g id="Layer_2" data-name="Layer 2"><g id="Layer_1-2" data-name="Layer 1"><circle cx="14" cy="29.77" r="14" fill="#e6edf5"/><circle cx="46.51" cy="12" r="12" fill="#e6edf5"/><circle cx="58.5" cy="57.77" r="20" fill="#e6edf5"/><rect width="44" height="64" x="19.25" y="7.27" fill="#84b8e3" rx="4"/><path d="M19.25 64.27h40v2a3 3 0 0 1-3 3h-37v-5ZM23.25 7.27h36v4a1 1 0 0 1-1 1h-39v-1a4 4 0 0 1 4-4Z" fill="#ffffff"/><path d="M59.25 72h-36a4.75 4.75 0 0 1-4.75-4.75v-56a4.75 4.75 0 0 1 4.75-4.75h36A4.75 4.75 0 0 1 64 11.27v56A4.75 4.75 0 0 1 59.25 72Zm-36-64A3.26 3.26 0 0 0 20 11.27v56a3.26 3.26 0 0 0 3.25 3.25h36a3.25 3.25 0 0 0 3.25-3.25v-56A3.25 3.25 0 0 0 59.25 8Z" fill="#07074e"/><rect width="44" height="50" x="19.25" y="14.27" fill="#84b8e3" rx="2"/><path d="M21.25 14.27h38v45a2 2 0 0 1-2 2h-38v-45a2 2 0 0 1 2-2Z" fill="#ffffff"/><path d="M61.25 65h-40a2.76 2.76 0 0 1-2.75-2.75v-46a2.75 2.75 0 0 1 2.75-2.75h40A2.75 2.75 0 0 1 64 16.27v46A2.75 2.75 0 0 1 61.25 65Zm-40-50A1.25 1.25 0 0 0 20 16.27v46a1.25 1.25 0 0 0 1.25 1.25h40a1.25 1.25 0 0 0 1.25-1.25v-46A1.25 1.25 0 0 0 61.25 15ZM46.82 11.52h-10a.75.75 0 0 1 0-1.5h10a.75.75 0 0 1 0 1.5ZM43.82 68.52h-4a.75.75 0 0 1 0-1.5h4a.75.75 0 1 1 0 1.5ZM53.82 68.52h-4a.75.75 0 0 1 0-1.5h4a.75.75 0 1 1 0 1.5ZM33.82 68.52h-4a.75.75 0 0 1 0-1.5h4a.75.75 0 1 1 0 1.5Z" fill="#07074e"/><circle cx="50.82" cy="10.77" r="1" fill="#07074e"/><rect width="17" height="6" x="8.25" y="19.77" fill="#84b8e3" rx="2"/><path d="M21.25 23.77h-11a2 2 0 0 1-2-2 2 2 0 0 1 2-2h10a2 2 0 0 1 2 2v1a1 1 0 0 1-1 1Z" fill="#ffffff"/><path d="M23.25 26.52h-13a2.76 2.76 0 0 1-2.75-2.75v-2A2.75 2.75 0 0 1 10.25 19h13A2.75 2.75 0 0 1 26 21.77v2a2.75 2.75 0 0 1-2.75 2.75Zm-13-6A1.25 1.25 0 0 0 9 21.77v2A1.25 1.25 0 0 0 10.25 25h13a1.25 1.25 0 0 0 1.25-1.25v-2a1.25 1.25 0 0 0-1.25-1.25Z" fill="#07074e"/><path d="M70.25 19.77h-38a2 2 0 0 0-2 2v7a2 2 0 0 1-2 2h-18a2 2 0 0 0-2 2v2a2 2 0 0 0 2 2h18a2 2 0 0 1 2 2v18a2 2 0 0 0 2 2h38a2 2 0 0 0 2-2v-35a2 2 0 0 0-2-2Z" fill="#84b8e3"/><path d="M68.25 19.77h-36a2 2 0 0 0-2 2v7a2 2 0 0 1-2 2h-18a2 2 0 0 0-2 2v2a2 2 0 0 0 2 2h18a2 2 0 0 1 2 2v16a2 2 0 0 0 2 2h37a1 1 0 0 0 1-1v-34a2 2 0 0 0-2-2Z" fill="#ffffff"/><path d="M70.25 59.52h-38a2.75 2.75 0 0 1-2.75-2.75v-18a1.25 1.25 0 0 0-1.25-1.25h-18a2.75 2.75 0 0 1-2.75-2.75v-2A2.75 2.75 0 0 1 10.25 30h18a1.25 1.25 0 0 0 1.25-1.25v-7A2.75 2.75 0 0 1 32.25 19h38A2.75 2.75 0 0 1 73 21.77v35a2.75 2.75 0 0 1-2.75 2.75Zm-60-28A1.25 1.25 0 0 0 9 32.77v2A1.25 1.25 0 0 0 10.25 36h18A2.75 2.75 0 0 1 31 38.77v18A1.25 1.25 0 0 0 32.25 58h38a1.25 1.25 0 0 0 1.25-1.25v-35a1.25 1.25 0 0 0-1.25-1.25h-38A1.25 1.25 0 0 0 31 21.77v7a2.75 2.75 0 0 1-2.75 2.75Z" fill="#07074e"/><rect width="17" height="6" x="8.25" y="41.77" fill="#84b8e3" rx="2"/><path d="M21.25 45.77h-11a2 2 0 0 1-2-2 2 2 0 0 1 2-2h10a2 2 0 0 1 2 2v1a1 1 0 0 1-1 1Z" fill="#ffffff"/><path d="M23.25 48.52h-13a2.75 2.75 0 0 1-2.75-2.75v-2A2.75 2.75 0 0 1 10.25 41h13A2.75 2.75 0 0 1 26 43.77v2a2.75 2.75 0 0 1-2.75 2.75Zm-13-6A1.25 1.25 0 0 0 9 43.77v2A1.25 1.25 0 0 0 10.25 47h13a1.25 1.25 0 0 0 1.25-1.25v-2a1.25 1.25 0 0 0-1.25-1.25Z" fill="#07074e"/><rect width="17" height="6" x="8.25" y="52.77" fill="#84b8e3" rx="2"/><path d="M21.25 56.77h-11a2 2 0 0 1-2-2 2 2 0 0 1 2-2h10a2 2 0 0 1 2 2v1a1 1 0 0 1-1 1Z" fill="#ffffff"/><path d="M23.25 59.52h-13a2.75 2.75 0 0 1-2.75-2.75v-2A2.75 2.75 0 0 1 10.25 52h13A2.75 2.75 0 0 1 26 54.77v2a2.75 2.75 0 0 1-2.75 2.75Zm-13-6A1.25 1.25 0 0 0 9 54.77v2A1.25 1.25 0 0 0 10.25 58h13a1.25 1.25 0 0 0 1.25-1.25v-2a1.25 1.25 0 0 0-1.25-1.25Z" fill="#07074e"/><rect width="32" height="10" x="35.25" y="43.77" fill="#84b8e3" rx="1"/><rect width="29" height="7" x="35.25" y="43.77" fill="#ffffff" rx="1"/><path d="M66.25 54.52h-30a1.76 1.76 0 0 1-1.75-1.75v-8A1.75 1.75 0 0 1 36.25 43h30A1.75 1.75 0 0 1 68 44.77v8a1.75 1.75 0 0 1-1.75 1.75Zm-30-10a.25.25 0 0 0-.25.25v8a.25.25 0 0 0 .25.25h30a.25.25 0 0 0 .25-.25v-8a.25.25 0 0 0-.25-.25Z" fill="#07074e"/><rect width="32" height="14" x="35.25" y="24.77" fill="#84b8e3" rx="1"/><rect width="29" height="11" x="35.25" y="24.77" fill="#ffffff" rx="1"/><path d="M66.25 39.52h-30a1.76 1.76 0 0 1-1.75-1.75v-12A1.75 1.75 0 0 1 36.25 24h30A1.75 1.75 0 0 1 68 25.77v12a1.75 1.75 0 0 1-1.75 1.75Zm-30-14a.25.25 0 0 0-.25.25v12a.25.25 0 0 0 .25.25h30a.25.25 0 0 0 .25-.25v-12a.25.25 0 0 0-.25-.25Z" fill="#07074e"/><path d="M46.25 30.52h-4a.75.75 0 0 1 0-1.5h4a.75.75 0 0 1 0 1.5Z" fill="#07074e"/><path d="M44.25 32.52a.76.76 0 0 1-.75-.75v-4a.75.75 0 1 1 1.5 0v4a.75.75 0 0 1-.75.75ZM52.25 49.52h-4a.75.75 0 0 1 0-1.5h4a.75.75 0 0 1 0 1.5Z" fill="#07074e"/><path d="M50.25 51.52a.76.76 0 0 1-.75-.75v-4a.75.75 0 0 1 1.5 0v4a.75.75 0 0 1-.75.75ZM14.25 66.52h-4a.75.75 0 0 1 0-1.5h4a.75.75 0 0 1 0 1.5Z" fill="#07074e"/><path d="M12.25 68.52a.75.75 0 0 1-.75-.75v-4a.75.75 0 0 1 1.5 0v4a.75.75 0 0 1-.75.75ZM61.25 34.52h-4a.75.75 0 0 1 0-1.5h4a.75.75 0 0 1 0 1.5Z" fill="#07074e"/><path d="M59.25 36.52a.76.76 0 0 1-.75-.75v-4a.75.75 0 1 1 1.5 0v4a.75.75 0 0 1-.75.75ZM72.26 12.52h-4a.75.75 0 0 1 0-1.5h4a.75.75 0 0 1 0 1.5Z" fill="#07074e"/><path d="M70.26 14.52a.75.75 0 0 1-.75-.75v-4a.75.75 0 1 1 1.5 0v4a.76.76 0 0 1-.75.75Z" fill="#07074e"/></g></g></svg>
