<svg xmlns="http://www.w3.org/2000/svg" viewBox="0 0 77.39 75.75"><g id="Layer_2" data-name="Layer 2"><g id="Layer_1-2" data-name="Layer 1"><circle cx="63.39" cy="34.55" r="14" fill="#e6edf5"/><circle cx="32.12" cy="12" r="12" fill="#e6edf5"/><circle cx="20" cy="55.75" r="20" fill="#e6edf5"/><path d="M8.7 11.38h58a3 3 0 0 1 3 3v43h-64v-43a3 3 0 0 1 3-3Z" fill="#84b8e3"/><path d="M8.7 11.38h58v39a4 4 0 0 1-4 4h-57v-40a3 3 0 0 1 3-3Z" fill="#ffffff"/><path d="M69.7 58.13h-64a.75.75 0 0 1-.7-.75v-43a3.75 3.75 0 0 1 3.7-3.75h58a3.76 3.76 0 0 1 3.75 3.75v43a.76.76 0 0 1-.75.75Zm-63.25-1.5H69V14.38a2.25 2.25 0 0 0-2.25-2.25H8.7a2.25 2.25 0 0 0-2.25 2.25Z" fill="#07074e"/><path d="M23.7 63.38h28v6h-28z" fill="#84b8e3"/><path d="M23.7 63.38h25v2a1 1 0 0 1-1 1h-24v-3Z" fill="#84b8e3"/><path d="M51.7 70.13h-28a.75.75 0 0 1-.75-.75v-6a.74.74 0 0 1 .75-.75h28a.75.75 0 0 1 .75.75v6a.76.76 0 0 1-.75.75Zm-27.25-1.5H51v-4.5H24.45Z" fill="#07074e"/><path d="M5.7 57.38h64v3a3 3 0 0 1-3 3h-58a3 3 0 0 1-3-3v-3Z" fill="#84b8e3"/><path d="M5.7 57.38h60v2a1 1 0 0 1-1 1h-59v-3Z" fill="#ffffff"/><path d="M66.7 64.13h-58A3.75 3.75 0 0 1 5 60.38v-3a.74.74 0 0 1 .75-.75h64a.75.75 0 0 1 .75.75v3a3.76 3.76 0 0 1-3.8 3.75Zm-60.25-6v2.25a2.25 2.25 0 0 0 2.25 2.25h58a2.25 2.25 0 0 0 2.3-2.25v-2.25ZM61.7 70.13h-48a.75.75 0 0 1 0-1.5h48a.75.75 0 0 1 0 1.5Z" fill="#07074e"/><circle cx="37.7" cy="60.38" r="1" fill="#07074e"/><path d="M5.7 17.38h6a2 2 0 0 1 2 2v6h-8v-8Z" fill="#84b8e3"/><path d="M5.7 17.38H11v4.33a1 1 0 0 1-1 1H5.7v-5.33Z" fill="#ffffff"/><path d="M13.7 26.13h-8a.75.75 0 0 1-.7-.75v-8a.74.74 0 0 1 .75-.75h6a2.75 2.75 0 0 1 2.75 2.75v6a.76.76 0 0 1-.8.75Zm-7.25-1.5H13v-5.25a1.26 1.26 0 0 0-1.25-1.25h-5.3Z" fill="#07074e"/><path d="M5.7 25.38h8v8h-8z" fill="#84b8e3"/><path d="M5.7 25.38H11v4.33a1 1 0 0 1-1 1H5.7v-5.33Z" fill="#ffffff"/><path d="M13.7 34.13h-8a.75.75 0 0 1-.7-.75v-8a.74.74 0 0 1 .75-.75h8a.75.75 0 0 1 .75.75v8a.76.76 0 0 1-.8.75Zm-7.25-1.5H13v-6.5H6.45Z" fill="#07074e"/><path d="M5.7 33.38h8v8h-8z" fill="#84b8e3"/><path d="M5.7 33.38H11v4.33a1 1 0 0 1-1 1H5.7v-5.33Z" fill="#ffffff"/><path d="M13.7 42.13h-8a.75.75 0 0 1-.7-.75v-8a.74.74 0 0 1 .75-.75h8a.75.75 0 0 1 .75.75v8a.76.76 0 0 1-.8.75Zm-7.25-1.5H13v-6.5H6.45Z" fill="#07074e"/><path d="M5.7 41.38h8v6a2 2 0 0 1-2 2h-6v-8Z" fill="#84b8e3"/><path d="M5.7 41.38H11v4.33a1 1 0 0 1-1 1H5.7v-5.33Z" fill="#ffffff"/><path d="M11.7 50.13h-6a.75.75 0 0 1-.7-.75v-8a.74.74 0 0 1 .75-.75h8a.75.75 0 0 1 .75.75v6a2.75 2.75 0 0 1-2.8 2.75Zm-5.25-1.5h5.25a1.26 1.26 0 0 0 1.3-1.25v-5.25H6.45Z" fill="#07074e"/><path d="M18.69 17.38h30v34h-30z" fill="#84b8e3"/><path d="M18.69 17.38h27v26a2 2 0 0 1-2 2h-25v-28Z" fill="#ffffff"/><path d="M48.69 52.13h-30a.76.76 0 0 1-.75-.75v-34a.75.75 0 0 1 .75-.75h30a.74.74 0 0 1 .75.75v34a.75.75 0 0 1-.75.75Zm-29.25-1.5h28.5v-32.5h-28.5Z" fill="#07074e"/><path d="M25 30.88a2.06 2.06 0 0 1-.4-4.09 1.81 1.81 0 0 1-.22-.87 1.74 1.74 0 0 1 2.92-1.29 3.16 3.16 0 0 1 6.29.41 2.78 2.78 0 0 1-.06.58 2.51 2.51 0 0 1 .55-.06 2.66 2.66 0 1 1 0 5.32Z" fill="#ffffff"/><path d="M34.08 25.56a2.51 2.51 0 0 0-.55.06 2.78 2.78 0 0 0 .06-.58 3.15 3.15 0 0 0-6.08-1.15A3.16 3.16 0 0 1 30.59 27a2.78 2.78 0 0 1-.06.58 2.51 2.51 0 0 1 .55-.06 2.66 2.66 0 0 1 2.66 2.66 2.84 2.84 0 0 1-.09.66h.43a2.66 2.66 0 1 0 0-5.32Z" fill="#84b8e3"/><path d="M34.08 31.63H25a2.82 2.82 0 0 1-1.34-5.3 2.71 2.71 0 0 1 0-.41 2.51 2.51 0 0 1 2.51-2.5 2.75 2.75 0 0 1 .7.1 3.91 3.91 0 0 1 7.5 1.3 3.41 3.41 0 0 1-.25 6.81Zm-7.95-6.71a1 1 0 0 0-1 1 1 1 0 0 0 .14.5.77.77 0 0 1 0 .68.73.73 0 0 1-.54.42 1.32 1.32 0 0 0 .27 2.61h9.08a1.91 1.91 0 1 0-.39-3.78.75.75 0 0 1-.89-.87 3.13 3.13 0 0 0 0-.44 2.41 2.41 0 0 0-4.79-.32.75.75 0 0 1-1.25.46 1 1 0 0 0-.63-.26Z" fill="#07074e"/><path d="m28.2 35.38-9.51 16H37.7l-9.5-16z" fill="#84b8e3"/><path d="m28.2 35.38-9.51 16h7l2.51-16z" fill="#ffffff"/><path d="M37.7 52.13h-19a.76.76 0 0 1-.65-.38.75.75 0 0 1 0-.75l9.5-16a.76.76 0 0 1 .65-.37.74.74 0 0 1 .64.37l9.5 16a.75.75 0 0 1 0 .75.78.78 0 0 1-.64.38ZM20 50.63h16.38L28.2 36.85Z" fill="#07074e"/><path d="m36.55 41.03-6.14 10.35H42.7l-6.15-10.35z" fill="#84b8e3"/><path d="m36.55 41.03-6.14 10.35h5.29l.85-10.35z" fill="#ffffff"/><path d="M42.7 52.13H30.41a.76.76 0 0 1-.65-1.13l6.15-10.35a.78.78 0 0 1 1.29 0L43.34 51a.75.75 0 0 1 0 .75.76.76 0 0 1-.64.38Zm-11-1.5h9.65l-4.8-8.13ZM24.39 8.13H12.7a.75.75 0 1 1 0-1.5h11.69a.75.75 0 0 1 0 1.5ZM30.7 8.13h-2.3a.75.75 0 1 1 0-1.5h2.3a.75.75 0 0 1 0 1.5Z" fill="#07074e"/><rect width="23" height="34" x="40.7" y="5.38" fill="#84b8e3" rx="2"/><path d="M42.7 5.38h18.5v27.5a3.5 3.5 0 0 1-3.5 3.5h-17v-29a2 2 0 0 1 2-2Z" fill="#ffffff"/><path d="M61.7 40.13h-19a2.75 2.75 0 0 1-2.7-2.75v-30a2.75 2.75 0 0 1 2.7-2.75h19a2.75 2.75 0 0 1 2.75 2.75v30a2.76 2.76 0 0 1-2.75 2.75Zm-19-34a1.25 1.25 0 0 0-1.25 1.25v30a1.25 1.25 0 0 0 1.25 1.25h19a1.25 1.25 0 0 0 1.3-1.25v-30a1.25 1.25 0 0 0-1.3-1.25Z" fill="#07074e"/><path d="M60.2 12.63h-16a.75.75 0 0 1 0-1.5h16a.75.75 0 0 1 0 1.5ZM60.2 19.63h-16a.75.75 0 0 1 0-1.5h16a.75.75 0 0 1 0 1.5ZM60.2 26.63h-16a.75.75 0 0 1 0-1.5h16a.75.75 0 0 1 0 1.5ZM60.2 33.63h-16a.75.75 0 0 1 0-1.5h16a.75.75 0 0 1 0 1.5Z" fill="#07074e"/><circle cx="46.7" cy="11.85" r="2.5" fill="#84b8e3"/><path d="M46.7 15.1a3.25 3.25 0 1 1 3.3-3.25 3.25 3.25 0 0 1-3.3 3.25Zm0-5a1.75 1.75 0 1 0 1.75 1.75 1.75 1.75 0 0 0-1.75-1.75Z" fill="#07074e"/><circle cx="55.7" cy="18.85" r="2.5" fill="#84b8e3"/><path d="M55.7 22.1a3.25 3.25 0 1 1 3.3-3.25 3.24 3.24 0 0 1-3.3 3.25Zm0-5a1.75 1.75 0 1 0 1.75 1.75 1.75 1.75 0 0 0-1.75-1.75Z" fill="#07074e"/><circle cx="49.7" cy="25.85" r="2.5" fill="#84b8e3"/><path d="M49.7 29.1a3.25 3.25 0 1 1 3.3-3.25 3.24 3.24 0 0 1-3.3 3.25Zm0-5a1.75 1.75 0 1 0 1.75 1.75 1.75 1.75 0 0 0-1.75-1.75Z" fill="#07074e"/><circle cx="57.7" cy="32.85" r="2.5" fill="#84b8e3"/><path d="M57.7 36.1a3.25 3.25 0 1 1 3.3-3.25 3.24 3.24 0 0 1-3.3 3.25Zm0-5a1.75 1.75 0 1 0 1.75 1.75 1.75 1.75 0 0 0-1.75-1.75Z" fill="#07074e"/><path d="m53.7 44.38 10 3.43-4.55 2.02-2.02 4.55-3.43-10z" fill="#84b8e3"/><path d="M57.13 55.13a.77.77 0 0 1-.67-.51l-3.46-10a.72.72 0 0 1 .18-.77.75.75 0 0 1 .77-.18l10 3.43a.76.76 0 0 1 .05 1.4l-4.28 1.9-1.91 4.28a.75.75 0 0 1-.68.45Zm-2.23-9.54 2.32 6.74 1.24-2.8a.74.74 0 0 1 .38-.38l2.81-1.25Z" fill="#07074e"/></g></g></svg>
