<?xml version="1.0" encoding="utf-8"?><svg viewBox="0 0 82.25 80.83" xmlns="http://www.w3.org/2000/svg" xmlns:xlink="http://www.w3.org/1999/xlink"><style>:root>svg{display:none}:root>svg:target{display:block}</style><svg viewBox="0 0 78.93 78.52" id="proposals--animations" xmlns="http://www.w3.org/2000/svg"><g data-name="Layer 2"><g data-name="Layer 1"><circle cx="48.93" cy="14" r="14" fill="#e6edf5"/><circle cx="12" cy="47.27" r="12" fill="#e6edf5"/><circle cx="58.93" cy="58.52" r="20" fill="#e6edf5"/><rect width="64" height="64" x="8.18" y="7.77" fill="#84b8e3" rx="18"/><path d="M26.18 7.77h23a16 16 0 0116 16v26a15 15 0 01-15 15h-26a16 16 0 01-16-16v-23a18 18 0 0118-18z" fill="#fff"/><path d="M54.18 72.52h-28A18.78 18.78 0 017.43 53.77v-28A18.78 18.78 0 0126.18 7h28a18.77 18.77 0 0118.75 18.77v28a18.77 18.77 0 01-18.75 18.75zm-28-64A17.27 17.27 0 008.93 25.77v28A17.27 17.27 0 0026.18 71h28a17.27 17.27 0 0017.25-17.23v-28A17.27 17.27 0 0054.18 8.52z" fill="#07074e"/><circle cx="40.18" cy="39.77" r="20" fill="#fff"/><path d="M51.6 23.36a20 20 0 01-27.83 27.82A20 20 0 1051.6 23.36z" fill="#84b8e3"/><path d="M40.18 60.52a20.75 20.75 0 1120.75-20.75 20.78 20.78 0 01-20.75 20.75zm0-40a19.25 19.25 0 1019.25 19.25 19.27 19.27 0 00-19.25-19.25z" fill="#07074e"/><circle cx="50.44" cy="32.52" r="2" fill="#fff"/><path d="M50.44 35.27a2.75 2.75 0 112.75-2.75 2.75 2.75 0 01-2.75 2.75zm0-4a1.25 1.25 0 101.25 1.25 1.25 1.25 0 00-1.25-1.25z" fill="#07074e"/><circle cx="60.18" cy="39.27" r="2" fill="#fff"/><path d="M60.18 42a2.75 2.75 0 112.75-2.75A2.76 2.76 0 0160.18 42zm0-4a1.25 1.25 0 101.25 1.25A1.26 1.26 0 0060.18 38z" fill="#07074e"/><circle cx="50" cy="14.75" r="2" fill="#84b8e3"/><path d="M50 17.5a2.75 2.75 0 112.75-2.75A2.75 2.75 0 0150 17.5zm0-4a1.25 1.25 0 101.25 1.25A1.25 1.25 0 0050 13.5z" fill="#07074e"/><circle cx="65.52" cy="25.98" r="2" fill="#fff"/><path d="M65.52 28.73A2.75 2.75 0 1168.27 26a2.75 2.75 0 01-2.75 2.73zm0-4A1.25 1.25 0 1066.77 26a1.25 1.25 0 00-1.25-1.27z" fill="#07074e"/><circle cx="28.69" cy="65.27" r="2" fill="#fff"/><path d="M28.69 68a2.75 2.75 0 112.75-2.75A2.76 2.76 0 0128.69 68zm0-4a1.25 1.25 0 101.25 1.25A1.25 1.25 0 0028.69 64z" fill="#07074e"/><circle cx="36.86" cy="50.02" r="2" fill="#84b8e3"/><path d="M36.86 52.77A2.75 2.75 0 1139.61 50a2.75 2.75 0 01-2.75 2.77zm0-4A1.25 1.25 0 1038.11 50a1.25 1.25 0 00-1.25-1.23z" fill="#07074e"/><circle cx="15.71" cy="50.67" r="2" fill="#84b8e3"/><path d="M15.71 53.42a2.75 2.75 0 112.75-2.75 2.76 2.76 0 01-2.75 2.75zm0-4A1.25 1.25 0 1017 50.67a1.25 1.25 0 00-1.29-1.25z" fill="#07074e"/><circle cx="26.84" cy="54.79" r="2" fill="#fff"/><path d="M26.84 57.54a2.75 2.75 0 112.75-2.75 2.75 2.75 0 01-2.75 2.75zm0-4a1.25 1.25 0 101.25 1.25 1.25 1.25 0 00-1.25-1.25z" fill="#07074e"/><path d="M61.94 60.26l-1.27 1.27a3 3 0 01-4.31-.08L29.85 33.1l3.66-3.66L61.87 56a3 3 0 01.07 4.26z" fill="#fff"/><path d="M59.2 59a1 1 0 01-1.43 0L31.18 31.77l-1.33 1.33 26.51 28.35a3 3 0 004.31.08l1.27-1.27a3 3 0 00.11-4.11z" fill="#84b8e3"/><path d="M58.55 63.16h-.06A3.72 3.72 0 0155.81 62l-26.5-28.39a.74.74 0 010-1l3.69-3.7a.75.75 0 011 0L62.38 55.4a3.74 3.74 0 01.09 5.39l-1.27 1.27a3.7 3.7 0 01-2.65 1.1zm-27.65-30l26 27.83a2.22 2.22 0 001.6.71 2.13 2.13 0 001.64-.7l1.27-1.27a2.26 2.26 0 000-3.24l-27.83-26zm31 27.15z" fill="#07074e"/><path d="M18.88 18.46l9.03 3.07 7.65-5.71-.12 9.54 7.79 5.51-9.11 2.83-2.83 9.12-5.51-7.79-9.55.12 5.71-7.65-3.06-9.04z" fill="#fff"/><path d="M33.19 31a2 2 0 00-1.33 1.32l-1.21 3.88a.49.49 0 01-.88.14L27.41 33a2 2 0 00-1.66-.84l-7.35.09-2.17 2.9 9.55-.15 5.51 7.79 2.83-9.12 9.11-2.83-2.91-2.06z" fill="#84b8e3"/><path d="M31.29 43.57a.75.75 0 01-.61-.32l-5.29-7.47-9.15.12a.73.73 0 01-.66-.41.75.75 0 01.06-.79l5.48-7.33-2.95-8.67a.73.73 0 01.18-.77.75.75 0 01.77-.18l8.66 2.94 7.34-5.47a.75.75 0 01.79-.07.74.74 0 01.4.68L36.2 25l7.47 5.28A.77.77 0 0144 31a.78.78 0 01-.52.6l-8.76 2.7L32 43a.75.75 0 01-.59.52zm-5.51-9.29a.74.74 0 01.61.31L31 41.14l2.39-7.66a.73.73 0 01.51-.48l7.66-2.38L35 26a.75.75 0 01-.32-.62l.1-8-6.43 4.8a.74.74 0 01-.69.11l-7.59-2.58 2.57 7.6a.75.75 0 01-.11.69l-4.8 6.43 8-.1z" fill="#07074e"/></g></g></svg><svg viewBox="0 0 82.25 77.4" id="proposals--apps" xmlns="http://www.w3.org/2000/svg"><g data-name="Layer 2"><g data-name="Layer 1"><circle cx="32.5" cy="63.4" r="14" fill="#e6edf5"/><circle cx="70.25" cy="31.03" r="12" fill="#e6edf5"/><circle cx="20" cy="20" r="20" fill="#e6edf5"/><rect width="44" height="64" x="30.25" y="6.15" fill="#84b8e3" rx="4"/><path d="M30.25 62.15h40v4a2 2 0 01-2 2h-37a1 1 0 01-1-1v-5zm4-56h36v4a2 2 0 01-2 2h-38v-2a4 4 0 014-4z" fill="#fff"/><path d="M70.25 70.9h-36a4.75 4.75 0 01-4.75-4.75v-56a4.76 4.76 0 014.75-4.75h36A4.76 4.76 0 0175 10.15v56a4.75 4.75 0 01-4.75 4.75zm-36-64A3.26 3.26 0 0031 10.15v56a3.25 3.25 0 003.25 3.25h36a3.25 3.25 0 003.25-3.25v-56a3.26 3.26 0 00-3.25-3.25z" fill="#07074e"/><rect width="44" height="48" x="30.25" y="14.15" fill="#84b8e3" rx="2"/><path d="M32.25 14.15h39v40a5 5 0 01-5 5h-36v-43a2 2 0 012-2z" fill="#fff"/><path d="M72.25 62.9h-40a2.75 2.75 0 01-2.75-2.75v-44a2.75 2.75 0 012.75-2.75h40A2.75 2.75 0 0175 16.15v44a2.75 2.75 0 01-2.75 2.75zm-40-48A1.25 1.25 0 0031 16.15v44a1.25 1.25 0 001.25 1.25h40a1.25 1.25 0 001.25-1.25v-44a1.25 1.25 0 00-1.25-1.25zm25.57-4h-10a.75.75 0 010-1.5h10a.75.75 0 010 1.5zm-3 56h-4a.75.75 0 110-1.5h4a.75.75 0 010 1.5zm10 0h-4a.75.75 0 110-1.5h4a.75.75 0 010 1.5zm-20 0h-4a.75.75 0 110-1.5h4a.75.75 0 010 1.5zm18-56.75a1 1 0 11-1-1 1 1 0 011 1z" fill="#07074e"/><rect width="6" height="6" x="10.25" y="20.15" fill="#84b8e3" rx="2"/><path d="M12.25 20.15h2v3a1 1 0 01-1 1h-3v-2a2 2 0 012-2z" fill="#fff"/><path d="M14.25 26.9h-2a2.75 2.75 0 01-2.75-2.75v-2a2.75 2.75 0 012.75-2.75h2A2.75 2.75 0 0117 22.15v2a2.75 2.75 0 01-2.75 2.75zm-2-6A1.25 1.25 0 0011 22.15v2a1.25 1.25 0 001.25 1.25h2a1.25 1.25 0 001.25-1.25v-2a1.25 1.25 0 00-1.25-1.25z" fill="#07074e"/><rect width="6" height="6" x="10.25" y="40.16" fill="#84b8e3" rx="2"/><path d="M12.25 40.16h2v3a1 1 0 01-1 1h-3v-2a2 2 0 012-2z" fill="#fff"/><path d="M14.25 46.91h-2a2.75 2.75 0 01-2.75-2.75v-2a2.75 2.75 0 012.75-2.75h2A2.75 2.75 0 0117 42.16v2a2.75 2.75 0 01-2.75 2.75zm-2-6A1.25 1.25 0 0011 42.16v2a1.26 1.26 0 001.25 1.25h2a1.26 1.26 0 001.25-1.25v-2a1.25 1.25 0 00-1.25-1.25z" fill="#07074e"/><rect width="6" height="6" x="10.25" y="50.16" fill="#84b8e3" rx="2"/><path d="M12.25 50.16h2v3a1 1 0 01-1 1h-3v-2a2 2 0 012-2z" fill="#fff"/><path d="M14.25 56.91h-2a2.75 2.75 0 01-2.75-2.75v-2a2.75 2.75 0 012.75-2.75h2A2.75 2.75 0 0117 52.16v2a2.75 2.75 0 01-2.75 2.75zm-2-6A1.25 1.25 0 0011 52.16v2a1.25 1.25 0 001.25 1.25h2a1.25 1.25 0 001.25-1.25v-2a1.25 1.25 0 00-1.25-1.25z" fill="#07074e"/><path d="M66.25 20.15h-44a2 2 0 00-2 2v6a2 2 0 01-2 2h-6a2 2 0 00-2 2v2a2 2 0 002 2h6a2 2 0 012 2v16a2 2 0 002 2h44a2 2 0 002-2v-32a2 2 0 00-2-2z" fill="#84b8e3"/><path d="M65.25 20.15h-43a2 2 0 00-2 2v6a2 2 0 01-2 2h-6a2 2 0 00-2 2v2a2 2 0 002 2h6a2 2 0 012 2v15h44a1 1 0 001-1z" fill="#fff"/><path d="M66.25 56.9h-44a2.75 2.75 0 01-2.75-2.75v-16a1.25 1.25 0 00-1.25-1.25h-6a2.75 2.75 0 01-2.75-2.75v-2a2.75 2.75 0 012.75-2.75h6a1.25 1.25 0 001.25-1.25v-6a2.75 2.75 0 012.75-2.75h44A2.75 2.75 0 0169 22.15v32a2.75 2.75 0 01-2.75 2.75zm-54-26A1.25 1.25 0 0011 32.15v2a1.25 1.25 0 001.25 1.25h6A2.75 2.75 0 0121 38.15v16a1.25 1.25 0 001.25 1.25h44a1.25 1.25 0 001.25-1.25v-32a1.25 1.25 0 00-1.25-1.25h-44A1.25 1.25 0 0021 22.15v6a2.75 2.75 0 01-2.75 2.75z" fill="#07074e"/><path d="M42.25 52.91H42a.75.75 0 01-.75-.75.73.73 0 01.36-.64.74.74 0 01.64-.36.75.75 0 01.75.75v.25a.76.76 0 01-.75.75zm-3.34 0h-.51a.75.75 0 010-1.5h.51a.75.75 0 010 1.5zm-3.6 0h-.52a.75.75 0 110-1.5h.52a.75.75 0 010 1.5zm-3.6 0h-.52a.75.75 0 110-1.5h.52a.75.75 0 110 1.5zm-3.61 0h-.51a.75.75 0 010-1.5h.51a.75.75 0 010 1.5zm-3.6 0h-.25a.76.76 0 01-.75-.75v-.25a.75.75 0 01.75-.75.74.74 0 01.64.36.73.73 0 01.36.64.75.75 0 01-.75.75zm-.25-2.79a.76.76 0 01-.75-.75v-.43a.75.75 0 011.5 0v.43a.75.75 0 01-.75.75zm0-2.96a.76.76 0 01-.75-.75v-.25a.75.75 0 01.75-.75h.25a.75.75 0 01.39 1.39.76.76 0 01-.64.36zm14.66-.25h-.51a.75.75 0 010-1.5h.51a.75.75 0 010 1.5zm-3.6 0h-.52a.75.75 0 110-1.5h.52a.75.75 0 010 1.5zm-3.6 0h-.52a.75.75 0 110-1.5h.52a.75.75 0 110 1.5zm-3.61 0h-.51a.75.75 0 010-1.5h.51a.75.75 0 010 1.5zm14.15.25a.76.76 0 01-.64-.36.75.75 0 01.39-1.39h.25a.75.75 0 01.75.75v.25a.76.76 0 01-.75.75zm0 2.96a.75.75 0 01-.75-.75v-.43a.75.75 0 011.5 0v.43a.76.76 0 01-.75.75z" fill="#07074e"/><path d="M42.13 34.62a9 9 0 000-2.93l-3.07-.48a5.48 5.48 0 00-.33-.79l1.83-2.51a8.84 8.84 0 00-2.07-2.07L36 27.67a5 5 0 00-.79-.33l-.48-3.07a8.9 8.9 0 00-1.46-.12 8.72 8.72 0 00-1.46.12l-.49 3.07a7.68 7.68 0 00-.79.32L28 25.84a9 9 0 00-2.06 2.07l1.82 2.51a5.48 5.48 0 00-.33.79l-3.06.48a9 9 0 000 2.93l3.06.48a5.48 5.48 0 00.33.79l-1.82 2.51A9.2 9.2 0 0028 40.47l2.51-1.83a6 6 0 00.79.33l.49 3.03a9.93 9.93 0 001.46.11 10.14 10.14 0 001.46-.11l.48-3a5 5 0 00.79-.33l2.51 1.83a9 9 0 002.07-2.07l-1.83-2.51a5.48 5.48 0 00.33-.79z" fill="#fff"/><path d="M42.13 34.62a9 9 0 000-2.93l-3.07-.48A2.18 2.18 0 0039 31a9 9 0 01-7.9 7.9c.08 0 .15.07.23.09l.46 3.01a9.93 9.93 0 001.46.11 10.14 10.14 0 001.46-.11l.48-3a5 5 0 00.79-.33l2.51 1.83a9 9 0 002.07-2.07l-1.83-2.51a5.48 5.48 0 00.33-.79z" fill="#84b8e3"/><path d="M33.25 42.9a10.22 10.22 0 01-1.58-.12.77.77 0 01-.62-.63l-.42-2.63-2.16 1.56a.75.75 0 01-.88 0 9.87 9.87 0 01-2.23-2.24.75.75 0 010-.88l1.56-2.16-2.63-.41a.74.74 0 01-.62-.62 9.47 9.47 0 01-.13-1.59 9.36 9.36 0 01.13-1.58.74.74 0 01.62-.62l2.63-.41-1.56-2.15a.75.75 0 010-.88 9.87 9.87 0 012.23-2.24.75.75 0 01.88 0l2.13 1.5.42-2.63a.77.77 0 01.61-.63 9.92 9.92 0 013.17 0 .77.77 0 01.62.63l.42 2.63 2.15-1.56a.74.74 0 01.88 0 9.92 9.92 0 012.24 2.24.77.77 0 010 .88L39.6 30.5l2.63.41a.77.77 0 01.63.62 9.73 9.73 0 010 3.17.77.77 0 01-.63.62l-2.63.41L41.16 38a.77.77 0 010 .88 9.92 9.92 0 01-2.24 2.24.75.75 0 01-.88 0l-2.14-1.61-.42 2.63a.77.77 0 01-.62.63 10.41 10.41 0 01-1.61.13zm-.81-1.54a7.22 7.22 0 001.61 0l.4-2.51a.77.77 0 01.51-.59 5.79 5.79 0 00.68-.29.76.76 0 01.78.07l2.06 1.49a8.19 8.19 0 001.14-1.14l-1.49-2.06a.76.76 0 01-.07-.78 5.28 5.28 0 00.29-.69.75.75 0 01.6-.5l2.51-.4v-1.61L39 32a.77.77 0 01-.6-.5 6.07 6.07 0 00-.29-.7.74.74 0 01.07-.77l1.49-2.06a7.68 7.68 0 00-1.14-1.14l-2.06 1.49a.74.74 0 01-.77.07 5.28 5.28 0 00-.69-.29.77.77 0 01-.51-.59l-.4-2.52a8.66 8.66 0 00-1.61 0L32 27.46a.75.75 0 01-.5.59 5.42 5.42 0 00-.7.29.74.74 0 01-.77-.07L28 26.78a8.19 8.19 0 00-1.14 1.14L28.37 30a.76.76 0 01.06.78 5.79 5.79 0 00-.29.68.74.74 0 01-.59.51l-2.51.4A8.12 8.12 0 0025 34l2.51.4a.74.74 0 01.59.51 5.79 5.79 0 00.29.68.76.76 0 01-.06.78l-1.5 2.06a8.77 8.77 0 001.17 1.1L30.07 38a.75.75 0 01.79-.06 4.61 4.61 0 00.68.28.75.75 0 01.5.59zm9.69-6.74z" fill="#07074e"/><circle cx="33.25" cy="33.15" r="2.5" fill="#fff"/><path d="M34.36 30.93a2.43 2.43 0 01.28 1.07 2.5 2.5 0 01-2.5 2.5 2.47 2.47 0 01-1.14-.23 2.49 2.49 0 103.34-3.34z" fill="#84b8e3"/><path d="M33.25 36.4a3.25 3.25 0 113.25-3.25 3.25 3.25 0 01-3.25 3.25zm0-5A1.75 1.75 0 1035 33.15a1.75 1.75 0 00-1.75-1.75zm30-5h-3.84a.75.75 0 010-1.5h3.84a.75.75 0 010 1.5zm-6.85 0h-5.15a.75.75 0 010-1.5h5.15a.75.75 0 010 1.5zm-8.15 0h-1a.75.75 0 010-1.5h1a.75.75 0 010 1.5zm11 5h-8a.75.75 0 010-1.5h8a.75.75 0 010 1.5zm4 5h-5.84a.75.75 0 010-1.5h5.84a.75.75 0 010 1.5zm-8.85 0h-3.15a.75.75 0 010-1.5h3.15a.75.75 0 010 1.5zm-6.15 0h-1a.75.75 0 010-1.5h1a.75.75 0 010 1.5zm12 5h-9a.75.75 0 010-1.5h9a.75.75 0 010 1.5zm1 5h-3.84a.75.75 0 010-1.5h3.84a.75.75 0 010 1.5zm-6.85 0h-3.15a.75.75 0 010-1.5h3.15a.75.75 0 010 1.5zm8.85 5.01h-3.84a.75.75 0 010-1.5h3.84a.75.75 0 010 1.5zm-6.84 0h-5.16a.75.75 0 010-1.5h5.16a.75.75 0 010 1.5zm-8.16 0h-1a.75.75 0 010-1.5h1a.75.75 0 010 1.5zm-23 11.49h-4a.75.75 0 010-1.5h4a.75.75 0 110 1.5z" fill="#07074e"/><path d="M23.25 64.9a.75.75 0 01-.75-.75v-4a.75.75 0 011.5 0v4a.75.75 0 01-.75.75zm-7 2h-4a.75.75 0 010-1.5h4a.75.75 0 010 1.5z" fill="#07074e"/><path d="M14.25 68.9a.75.75 0 01-.75-.75v-4a.75.75 0 011.5 0v4a.75.75 0 01-.75.75zm7-54h-4a.75.75 0 010-1.5h4a.75.75 0 010 1.5z" fill="#07074e"/><path d="M19.25 16.9a.76.76 0 01-.75-.75v-4a.75.75 0 111.5 0v4a.76.76 0 01-.75.75zm-5-8h-4a.75.75 0 010-1.5h4a.75.75 0 010 1.5z" fill="#07074e"/><path d="M12.25 10.9a.76.76 0 01-.75-.75v-4a.75.75 0 111.5 0v4a.76.76 0 01-.75.75z" fill="#07074e"/></g></g></svg><svg viewBox="0 0 80.5 80.5" id="proposals--brand" xmlns="http://www.w3.org/2000/svg"><g data-name="Layer 2"><g data-name="Layer 1"><circle cx="38.75" cy="66.5" r="14" fill="#e6edf5"/><circle cx="12" cy="24.5" r="12" fill="#e6edf5"/><circle cx="60.5" cy="20" r="20" fill="#e6edf5"/><path d="M70.75 73.25h-62a1 1 0 01-1-1v-51l12-12h51a1 1 0 011 1v62a1 1 0 01-1 1z" fill="#84b8e3"/><path d="M65.75 68.25h-58v-47l12-12h47v58a1 1 0 01-1 1z" fill="#fff"/><path d="M70.75 74h-62A1.75 1.75 0 017 72.25v-51a.75.75 0 01.22-.53l12-12a.75.75 0 01.53-.22h51a1.75 1.75 0 011.75 1.75v62A1.75 1.75 0 0170.75 74zM8.5 21.56v50.69a.25.25 0 00.25.25h62a.25.25 0 00.25-.25v-62a.25.25 0 00-.25-.25H20.06z" fill="#07074e"/><path d="M58.75 61h-2a.75.75 0 010-1.5H58v-1.25a.75.75 0 011.5 0v2a.75.75 0 01-.75.75zM53 61h-3.8a.75.75 0 010-1.5H53a.75.75 0 010 1.5zm-7.55 0h-3.81a.75.75 0 010-1.5h3.78a.75.75 0 010 1.5zm-7.56 0h-3.81a.75.75 0 010-1.5h3.78a.75.75 0 010 1.5zm-7.55 0h-3.81a.75.75 0 010-1.5h3.78a.75.75 0 110 1.5zm-7.59 0h-2a.75.75 0 01-.75-.75v-2a.75.75 0 011.5 0v1.25h1.25a.75.75 0 010 1.5zm-2-5.78a.75.75 0 01-.75-.75V50.7a.75.75 0 011.5 0v3.77a.75.75 0 01-.75.75zm0-7.55a.76.76 0 01-.75-.75v-3.78a.75.75 0 011.5 0v3.78a.76.76 0 01-.75.75zm0-7.56a.75.75 0 01-.75-.75v-3.77a.75.75 0 011.5 0v3.77a.75.75 0 01-.75.75zm0-7.55a.76.76 0 01-.75-.75V28a.75.75 0 011.5 0v3.78a.76.76 0 01-.75.78zm0-7.56a.75.75 0 01-.75-.75v-2a.76.76 0 01.75-.75h2a.75.75 0 010 1.5H21.5v1.25a.75.75 0 01-.75.75zM53 23h-3.81a.75.75 0 010-1.5H53a.75.75 0 010 1.5zm-7.55 0h-3.81a.75.75 0 010-1.5h3.78a.75.75 0 010 1.5zm-7.56 0h-3.81a.75.75 0 010-1.5h3.78a.75.75 0 010 1.5zm-7.55 0h-3.81a.75.75 0 010-1.5h3.78a.75.75 0 110 1.5zm28.41 2a.75.75 0 01-.75-.75V23h-1.25a.75.75 0 010-1.5h2a.76.76 0 01.75.75v2a.75.75 0 01-.75.75zm0 30.22a.75.75 0 01-.75-.75V50.7a.75.75 0 011.5 0v3.77a.75.75 0 01-.75.75zm0-7.55a.76.76 0 01-.75-.75v-3.78a.75.75 0 011.5 0v3.78a.76.76 0 01-.75.75zm0-7.56a.75.75 0 01-.75-.75v-3.77a.75.75 0 011.5 0v3.77a.75.75 0 01-.75.75zm0-7.55a.76.76 0 01-.75-.75V28a.75.75 0 011.5 0v3.78a.76.76 0 01-.75.78z" fill="#07074e"/><rect width="6" height="6" x="17.75" y="19.25" fill="#84b8e3" rx="1"/><path d="M18.75 19.25h3v3a1 1 0 01-1 1h-3v-3a1 1 0 011-1z" fill="#fff"/><path d="M22.75 26h-4A1.75 1.75 0 0117 24.25v-4a1.75 1.75 0 011.75-1.75h4a1.76 1.76 0 011.75 1.75v4A1.76 1.76 0 0122.75 26zm-4-6a.25.25 0 00-.25.25v4a.25.25 0 00.25.25h4a.25.25 0 00.25-.25v-4a.25.25 0 00-.25-.25z" fill="#07074e"/><rect width="6" height="6" x="55.75" y="19.25" fill="#84b8e3" rx="1"/><path d="M56.75 19.25h3v3a1 1 0 01-1 1h-3v-3a1 1 0 011-1z" fill="#fff"/><path d="M60.75 26h-4A1.76 1.76 0 0155 24.25v-4a1.76 1.76 0 011.75-1.75h4a1.75 1.75 0 011.75 1.75v4A1.75 1.75 0 0160.75 26zm-4-6a.25.25 0 00-.25.25v4a.25.25 0 00.25.25h4a.25.25 0 00.25-.25v-4a.25.25 0 00-.25-.25z" fill="#07074e"/><rect width="6" height="6" x="17.75" y="57.25" fill="#84b8e3" rx="1"/><path d="M18.75 57.25h3v3a1 1 0 01-1 1h-3v-3a1 1 0 011-1z" fill="#fff"/><path d="M22.75 64h-4A1.75 1.75 0 0117 62.25v-4a1.75 1.75 0 011.75-1.75h4a1.76 1.76 0 011.75 1.75v4A1.75 1.75 0 0122.75 64zm-4-6a.25.25 0 00-.25.25v4a.25.25 0 00.25.25h4a.25.25 0 00.25-.25v-4a.25.25 0 00-.25-.25z" fill="#07074e"/><rect width="6" height="6" x="55.75" y="57.25" fill="#84b8e3" rx="1"/><path d="M56.75 57.25h3v3a1 1 0 01-1 1h-3v-3a1 1 0 011-1z" fill="#fff"/><path d="M60.75 64h-4A1.75 1.75 0 0155 62.25v-4a1.76 1.76 0 011.75-1.75h4a1.75 1.75 0 011.75 1.75v4A1.75 1.75 0 0160.75 64zm-4-6a.25.25 0 00-.25.25v4a.25.25 0 00.25.25h4a.25.25 0 00.25-.25v-4a.25.25 0 00-.25-.25z" fill="#07074e"/><path d="M7.75 21.25l12-12v12h-12z" fill="#84b8e3"/><path d="M7.75 21.25l12-12-5 12h-7z" fill="#fff"/><path d="M19.75 22h-12a.74.74 0 01-.69-.46.76.76 0 01.16-.82l12-12a.76.76 0 01.78-.16.74.74 0 01.46.69v12a.75.75 0 01-.71.75zM9.56 20.5H19v-9.44z" fill="#07074e"/><path d="M47.32 55.25h5.43l-8-28h-10l-8 28h5.43l1.94-6.79h11.26l1.94 6.79z" fill="#84b8e3"/><path d="M26.75 55.25h5.43l.53-2h-5.39l-.57 2zm18-28h-2.43l7.25 25.36a.5.5 0 01-.48.64h-2.34l.57 2h5.43z" fill="#84b8e3"/><path d="M52.75 56h-5.43a.75.75 0 01-.72-.54l-1.79-6.25H34.69l-1.79 6.25a.75.75 0 01-.72.54h-5.43a.75.75 0 01-.6-.3.72.72 0 01-.12-.65l8-28a.75.75 0 01.72-.55h10a.75.75 0 01.72.55l8 28a.72.72 0 01-.12.65.74.74 0 01-.6.3zm-4.86-1.5h3.87L44.18 28h-8.86l-7.58 26.5h3.87l1.79-6.25a.75.75 0 01.72-.54h11.26a.74.74 0 01.72.54z" fill="#07074e"/><path d="M35.55 43.46l3.2-11.21h2l3.2 11.21h-8.4z" fill="#fff"/><path d="M44 43.46l-3.2-11.21h-2l-.21.76 2.23 7.81a.5.5 0 01-.48.64h-4.22l-.57 2z" fill="#84b8e3"/><path d="M44 44.21h-8.4a.75.75 0 01-.72-1L38 32.05a.75.75 0 01.72-.55h2a.75.75 0 01.72.55l3.2 11.2a.75.75 0 01-.72 1zm-7.41-1.5H43L40.18 33h-.86zM12.75 62a.75.75 0 01-.75-.75v-13.7a.75.75 0 011.5 0v13.7a.74.74 0 01-.75.75zm0-17.7a.75.75 0 01-.75-.75v-2.3a.75.75 0 011.5 0v2.3a.74.74 0 01-.75.75zm54 2.7a.75.75 0 01-.75-.75v-9.7a.75.75 0 011.5 0v9.7a.75.75 0 01-.75.75zm0-13.7a.75.75 0 01-.75-.75v-2.3a.75.75 0 011.5 0v2.3a.75.75 0 01-.75.75z" fill="#07074e"/></g></g></svg><svg viewBox="0 0 80.32 80.83" id="proposals--identic" xmlns="http://www.w3.org/2000/svg"><g data-name="Layer 2"><g data-name="Layer 1"><circle cx="30.06" cy="66.83" r="14" fill="#e6edf5"/><circle cx="68.32" cy="41.57" r="12" fill="#e6edf5"/><circle cx="20" cy="20" r="20" fill="#e6edf5"/><rect width="50" height="62" x="8.81" y="11.07" fill="#84b8e3" rx="2"/><path d="M10.81 11.07h45v58a1 1 0 01-1 1h-46v-57a2 2 0 012-2z" fill="#fff"/><path d="M56.81 73.82h-46a2.75 2.75 0 01-2.75-2.75v-58a2.76 2.76 0 012.75-2.75h46a2.75 2.75 0 012.75 2.75v58a2.75 2.75 0 01-2.75 2.75zm-46-62a1.25 1.25 0 00-1.25 1.25v58a1.25 1.25 0 001.25 1.25h46a1.25 1.25 0 001.25-1.25v-58a1.25 1.25 0 00-1.25-1.25z" fill="#07074e"/><path d="M13.82 13.82a.74.74 0 01-.75-.75v-4a.75.75 0 011.5 0v4a.75.75 0 01-.75.75zm6.66 0a.75.75 0 01-.75-.75v-4a.75.75 0 011.5 0v4a.74.74 0 01-.75.75zm6.67 0a.75.75 0 01-.75-.75v-4a.75.75 0 011.5 0v4a.75.75 0 01-.75.75zm6.67 0a.74.74 0 01-.75-.75v-4a.75.75 0 011.5 0v4a.75.75 0 01-.75.75zm6.66 0a.75.75 0 01-.75-.75v-4a.75.75 0 011.5 0v4a.74.74 0 01-.75.75zm6.67 0a.75.75 0 01-.75-.75v-4a.75.75 0 011.5 0v4a.75.75 0 01-.75.75zm6.67 0a.74.74 0 01-.75-.75v-4a.75.75 0 011.5 0v4a.75.75 0 01-.75.75z" fill="#07074e"/><path d="M14.81 26.08v36h5.01v-34l-5.01-2z" fill="#84b8e3"/><path d="M14.82 26.08v34h2a1 1 0 001-1v-31.8z" fill="#fff"/><path d="M19.82 62.83h-5a.75.75 0 01-.75-.75v-36a.74.74 0 011-.7l5 2a.76.76 0 01.48.7v34a.76.76 0 01-.73.75zm-4.25-1.5h3.5V28.58l-3.5-1.4z" fill="#07074e"/><path d="M24.82 26.08l-5 2v34h5v-36z" fill="#84b8e3"/><path d="M22.82 26.88l-3 1.2v32h2a1 1 0 001-1z" fill="#fff"/><path d="M24.82 62.83h-5a.75.75 0 01-.75-.75v-34a.75.75 0 01.47-.7l5-2a.76.76 0 011 .7v36a.76.76 0 01-.72.75zm-4.25-1.5h3.5V27.18l-3.5 1.4z" fill="#07074e"/><path d="M25.82 62.83h-12a.75.75 0 010-1.5h12a.75.75 0 110 1.5z" fill="#07074e"/><path d="M14.81 26.08l5.01 2 5-2-5-7-5.01 7z" fill="#84b8e3"/><path d="M16.48 23.74l2.59 1a2 2 0 001.49 0l2.59-1-3.33-4.66z" fill="#fff"/><path d="M19.82 28.83a.67.67 0 01-.28-.06l-5-2a.7.7 0 01-.44-.48.72.72 0 01.11-.65l5-7a.78.78 0 011.22 0l5 7a.79.79 0 01.11.65.74.74 0 01-.45.48l-5 2a.66.66 0 01-.27.06zM16 25.74l3.84 1.53 3.83-1.53-3.83-5.37z" fill="#07074e"/><path d="M14.82 62.08h10v3a2 2 0 01-2 2h-6a2 2 0 01-2-2v-3z" fill="#84b8e3"/><path d="M14.82 62.08h8v2a1 1 0 01-1 1h-7v-3z" fill="#84b8e3"/><path d="M22.82 67.83h-6a2.75 2.75 0 01-2.75-2.75v-3a.74.74 0 01.75-.75h10a.75.75 0 01.75.75v3a2.76 2.76 0 01-2.75 2.75zm-7.25-5v2.25a1.26 1.26 0 001.25 1.25h6a1.26 1.26 0 001.25-1.25v-2.25z" fill="#07074e"/><rect width="32" height="18" x="40.81" y="20.07" fill="#84b8e3" rx="1"/><path d="M41.81 20.07h28v14a1 1 0 01-1 1h-28v-14a1 1 0 011-1z" fill="#fff"/><path d="M71.81 38.82h-30a1.75 1.75 0 01-1.75-1.75v-16a1.76 1.76 0 011.75-1.75h30a1.75 1.75 0 011.75 1.75v16a1.75 1.75 0 01-1.75 1.75zm-30-18a.25.25 0 00-.25.25v16a.25.25 0 00.25.25h30a.25.25 0 00.25-.25v-16a.25.25 0 00-.25-.25z" fill="#07074e"/><path d="M62.81 31.82h-6a.75.75 0 010-1.5h6a.75.75 0 010 1.5zm4-4h-4a.75.75 0 010-1.5h4a.75.75 0 010 1.5zm-7 0h-3a.75.75 0 010-1.5h3a.75.75 0 010 1.5zm-8 2h-1.38a.75.75 0 010-1.5h1.38a.75.75 0 010 1.5zm-4.61 0h-1.39a.75.75 0 010-1.5h1.39a.75.75 0 010 1.5zm1.61 3a.75.75 0 01-.75-.75v-1.38a.75.75 0 111.5 0v1.38a.74.74 0 01-.75.75zm0-4.61a.76.76 0 01-.75-.75v-1.39a.75.75 0 111.5 0v1.39a.75.75 0 01-.75.75z" fill="#07074e"/><path d="M30.81 45.08h42v20h-42z" fill="#84b8e3"/><path d="M30.81 45.08h39v16a1 1 0 01-1 1h-38v-17z" fill="#fff"/><path d="M72.81 65.83h-42a.76.76 0 01-.75-.75v-20a.75.75 0 01.75-.75h42a.74.74 0 01.75.75v20a.75.75 0 01-.75.75zm-41.25-1.5h40.5v-18.5h-40.5z" fill="#07074e"/><path d="M51.81 55.07l-21-9.99h42l-21 9.99z" fill="#84b8e3"/><path d="M48.81 53.65l-18-8.57h36l-18 8.57z" fill="#fff"/><path d="M51.81 55.82a.71.71 0 01-.32-.07l-21-10a.77.77 0 01-.41-.84.75.75 0 01.73-.58h42a.75.75 0 01.33 1.42l-21 10a.78.78 0 01-.33.07zm-17.68-10l17.68 8.41 17.68-8.41zm30.68 15.01h-6a.75.75 0 010-1.5h6a.75.75 0 010 1.5zm4-4h-4a.75.75 0 010-1.5h4a.75.75 0 010 1.5zm-7 0h-3a.75.75 0 010-1.5h3a.75.75 0 010 1.5zm-21 2h-1.38a.75.75 0 110-1.5h1.38a.75.75 0 010 1.5zm-4.61 0h-1.39a.75.75 0 010-1.5h1.39a.75.75 0 010 1.5zm1.61 3a.76.76 0 01-.75-.75v-1.39a.75.75 0 011.5 0v1.39a.75.75 0 01-.75.75zm0-4.62a.76.76 0 01-.75-.75v-1.38a.75.75 0 011.5 0v1.38a.75.75 0 01-.75.75zm-32-17.08h-4a.75.75 0 010-1.5h4a.75.75 0 110 1.5z" fill="#07074e"/><path d="M3.81 42.13a.76.76 0 01-.75-.75v-4a.75.75 0 111.5 0v4a.75.75 0 01-.75.75z" fill="#07074e"/><circle cx="3.81" cy="45.38" r=".75" fill="#07074e"/><circle cx="3.81" cy="48.38" r=".75" fill="#07074e"/><circle cx="3.81" cy="52.38" r=".75" fill="#07074e"/><circle cx="3.81" cy="58.38" r=".75" fill="#07074e"/></g></g></svg><svg viewBox="0 0 78.5 77.77" id="proposals--ui-ux" xmlns="http://www.w3.org/2000/svg"><g data-name="Layer 2"><g data-name="Layer 1"><circle cx="14" cy="29.77" r="14" fill="#e6edf5"/><circle cx="46.51" cy="12" r="12" fill="#e6edf5"/><circle cx="58.5" cy="57.77" r="20" fill="#e6edf5"/><rect width="44" height="64" x="19.25" y="7.27" fill="#84b8e3" rx="4"/><path d="M19.25 64.27h40v2a3 3 0 01-3 3h-37v-5zm4-57h36v4a1 1 0 01-1 1h-39v-1a4 4 0 014-4z" fill="#fff"/><path d="M59.25 72h-36a4.75 4.75 0 01-4.75-4.75v-56a4.75 4.75 0 014.75-4.75h36A4.75 4.75 0 0164 11.27v56A4.75 4.75 0 0159.25 72zm-36-64A3.26 3.26 0 0020 11.27v56a3.26 3.26 0 003.25 3.25h36a3.25 3.25 0 003.25-3.25v-56A3.25 3.25 0 0059.25 8z" fill="#07074e"/><rect width="44" height="50" x="19.25" y="14.27" fill="#84b8e3" rx="2"/><path d="M21.25 14.27h38v45a2 2 0 01-2 2h-38v-45a2 2 0 012-2z" fill="#fff"/><path d="M61.25 65h-40a2.76 2.76 0 01-2.75-2.75v-46a2.75 2.75 0 012.75-2.75h40A2.75 2.75 0 0164 16.27v46A2.75 2.75 0 0161.25 65zm-40-50A1.25 1.25 0 0020 16.27v46a1.25 1.25 0 001.25 1.25h40a1.25 1.25 0 001.25-1.25v-46A1.25 1.25 0 0061.25 15zm25.57-3.48h-10a.75.75 0 010-1.5h10a.75.75 0 010 1.5zm-3 57h-4a.75.75 0 010-1.5h4a.75.75 0 110 1.5zm10 0h-4a.75.75 0 010-1.5h4a.75.75 0 110 1.5zm-20 0h-4a.75.75 0 010-1.5h4a.75.75 0 110 1.5z" fill="#07074e"/><circle cx="50.82" cy="10.77" r="1" fill="#07074e"/><rect width="17" height="6" x="8.25" y="19.77" fill="#84b8e3" rx="2"/><path d="M21.25 23.77h-11a2 2 0 01-2-2 2 2 0 012-2h10a2 2 0 012 2v1a1 1 0 01-1 1z" fill="#fff"/><path d="M23.25 26.52h-13a2.76 2.76 0 01-2.75-2.75v-2A2.75 2.75 0 0110.25 19h13A2.75 2.75 0 0126 21.77v2a2.75 2.75 0 01-2.75 2.75zm-13-6A1.25 1.25 0 009 21.77v2A1.25 1.25 0 0010.25 25h13a1.25 1.25 0 001.25-1.25v-2a1.25 1.25 0 00-1.25-1.25z" fill="#07074e"/><path d="M70.25 19.77h-38a2 2 0 00-2 2v7a2 2 0 01-2 2h-18a2 2 0 00-2 2v2a2 2 0 002 2h18a2 2 0 012 2v18a2 2 0 002 2h38a2 2 0 002-2v-35a2 2 0 00-2-2z" fill="#84b8e3"/><path d="M68.25 19.77h-36a2 2 0 00-2 2v7a2 2 0 01-2 2h-18a2 2 0 00-2 2v2a2 2 0 002 2h18a2 2 0 012 2v16a2 2 0 002 2h37a1 1 0 001-1v-34a2 2 0 00-2-2z" fill="#fff"/><path d="M70.25 59.52h-38a2.75 2.75 0 01-2.75-2.75v-18a1.25 1.25 0 00-1.25-1.25h-18a2.75 2.75 0 01-2.75-2.75v-2A2.75 2.75 0 0110.25 30h18a1.25 1.25 0 001.25-1.25v-7A2.75 2.75 0 0132.25 19h38A2.75 2.75 0 0173 21.77v35a2.75 2.75 0 01-2.75 2.75zm-60-28A1.25 1.25 0 009 32.77v2A1.25 1.25 0 0010.25 36h18A2.75 2.75 0 0131 38.77v18A1.25 1.25 0 0032.25 58h38a1.25 1.25 0 001.25-1.25v-35a1.25 1.25 0 00-1.25-1.25h-38A1.25 1.25 0 0031 21.77v7a2.75 2.75 0 01-2.75 2.75z" fill="#07074e"/><rect width="17" height="6" x="8.25" y="41.77" fill="#84b8e3" rx="2"/><path d="M21.25 45.77h-11a2 2 0 01-2-2 2 2 0 012-2h10a2 2 0 012 2v1a1 1 0 01-1 1z" fill="#fff"/><path d="M23.25 48.52h-13a2.75 2.75 0 01-2.75-2.75v-2A2.75 2.75 0 0110.25 41h13A2.75 2.75 0 0126 43.77v2a2.75 2.75 0 01-2.75 2.75zm-13-6A1.25 1.25 0 009 43.77v2A1.25 1.25 0 0010.25 47h13a1.25 1.25 0 001.25-1.25v-2a1.25 1.25 0 00-1.25-1.25z" fill="#07074e"/><rect width="17" height="6" x="8.25" y="52.77" fill="#84b8e3" rx="2"/><path d="M21.25 56.77h-11a2 2 0 01-2-2 2 2 0 012-2h10a2 2 0 012 2v1a1 1 0 01-1 1z" fill="#fff"/><path d="M23.25 59.52h-13a2.75 2.75 0 01-2.75-2.75v-2A2.75 2.75 0 0110.25 52h13A2.75 2.75 0 0126 54.77v2a2.75 2.75 0 01-2.75 2.75zm-13-6A1.25 1.25 0 009 54.77v2A1.25 1.25 0 0010.25 58h13a1.25 1.25 0 001.25-1.25v-2a1.25 1.25 0 00-1.25-1.25z" fill="#07074e"/><rect width="32" height="10" x="35.25" y="43.77" fill="#84b8e3" rx="1"/><rect width="29" height="7" x="35.25" y="43.77" fill="#fff" rx="1"/><path d="M66.25 54.52h-30a1.76 1.76 0 01-1.75-1.75v-8A1.75 1.75 0 0136.25 43h30A1.75 1.75 0 0168 44.77v8a1.75 1.75 0 01-1.75 1.75zm-30-10a.25.25 0 00-.25.25v8a.25.25 0 00.25.25h30a.25.25 0 00.25-.25v-8a.25.25 0 00-.25-.25z" fill="#07074e"/><rect width="32" height="14" x="35.25" y="24.77" fill="#84b8e3" rx="1"/><rect width="29" height="11" x="35.25" y="24.77" fill="#fff" rx="1"/><path d="M66.25 39.52h-30a1.76 1.76 0 01-1.75-1.75v-12A1.75 1.75 0 0136.25 24h30A1.75 1.75 0 0168 25.77v12a1.75 1.75 0 01-1.75 1.75zm-30-14a.25.25 0 00-.25.25v12a.25.25 0 00.25.25h30a.25.25 0 00.25-.25v-12a.25.25 0 00-.25-.25z" fill="#07074e"/><path d="M46.25 30.52h-4a.75.75 0 010-1.5h4a.75.75 0 010 1.5z" fill="#07074e"/><path d="M44.25 32.52a.76.76 0 01-.75-.75v-4a.75.75 0 111.5 0v4a.75.75 0 01-.75.75zm8 17h-4a.75.75 0 010-1.5h4a.75.75 0 010 1.5z" fill="#07074e"/><path d="M50.25 51.52a.76.76 0 01-.75-.75v-4a.75.75 0 011.5 0v4a.75.75 0 01-.75.75zm-36 15h-4a.75.75 0 010-1.5h4a.75.75 0 010 1.5z" fill="#07074e"/><path d="M12.25 68.52a.75.75 0 01-.75-.75v-4a.75.75 0 011.5 0v4a.75.75 0 01-.75.75zm49-34h-4a.75.75 0 010-1.5h4a.75.75 0 010 1.5z" fill="#07074e"/><path d="M59.25 36.52a.76.76 0 01-.75-.75v-4a.75.75 0 111.5 0v4a.75.75 0 01-.75.75zm13.01-24h-4a.75.75 0 010-1.5h4a.75.75 0 010 1.5z" fill="#07074e"/><path d="M70.26 14.52a.75.75 0 01-.75-.75v-4a.75.75 0 111.5 0v4a.76.76 0 01-.75.75z" fill="#07074e"/></g></g></svg><svg viewBox="0 0 77.39 75.75" id="proposals--web-design" xmlns="http://www.w3.org/2000/svg"><g data-name="Layer 2"><g data-name="Layer 1"><circle cx="63.39" cy="34.55" r="14" fill="#e6edf5"/><circle cx="32.12" cy="12" r="12" fill="#e6edf5"/><circle cx="20" cy="55.75" r="20" fill="#e6edf5"/><path d="M8.7 11.38h58a3 3 0 013 3v43h-64v-43a3 3 0 013-3z" fill="#84b8e3"/><path d="M8.7 11.38h58v39a4 4 0 01-4 4h-57v-40a3 3 0 013-3z" fill="#fff"/><path d="M69.7 58.13h-64a.75.75 0 01-.7-.75v-43a3.75 3.75 0 013.7-3.75h58a3.76 3.76 0 013.75 3.75v43a.76.76 0 01-.75.75zm-63.25-1.5H69V14.38a2.25 2.25 0 00-2.25-2.25H8.7a2.25 2.25 0 00-2.25 2.25z" fill="#07074e"/><path d="M23.7 63.38h28v6h-28z" fill="#84b8e3"/><path d="M23.7 63.38h25v2a1 1 0 01-1 1h-24v-3z" fill="#84b8e3"/><path d="M51.7 70.13h-28a.75.75 0 01-.75-.75v-6a.74.74 0 01.75-.75h28a.75.75 0 01.75.75v6a.76.76 0 01-.75.75zm-27.25-1.5H51v-4.5H24.45z" fill="#07074e"/><path d="M5.7 57.38h64v3a3 3 0 01-3 3h-58a3 3 0 01-3-3v-3z" fill="#84b8e3"/><path d="M5.7 57.38h60v2a1 1 0 01-1 1h-59v-3z" fill="#fff"/><path d="M66.7 64.13h-58A3.75 3.75 0 015 60.38v-3a.74.74 0 01.75-.75h64a.75.75 0 01.75.75v3a3.76 3.76 0 01-3.8 3.75zm-60.25-6v2.25a2.25 2.25 0 002.25 2.25h58a2.25 2.25 0 002.3-2.25v-2.25zm55.25 12h-48a.75.75 0 010-1.5h48a.75.75 0 010 1.5z" fill="#07074e"/><circle cx="37.7" cy="60.38" r="1" fill="#07074e"/><path d="M5.7 17.38h6a2 2 0 012 2v6h-8v-8z" fill="#84b8e3"/><path d="M5.7 17.38H11v4.33a1 1 0 01-1 1H5.7v-5.33z" fill="#fff"/><path d="M13.7 26.13h-8a.75.75 0 01-.7-.75v-8a.74.74 0 01.75-.75h6a2.75 2.75 0 012.75 2.75v6a.76.76 0 01-.8.75zm-7.25-1.5H13v-5.25a1.26 1.26 0 00-1.25-1.25h-5.3z" fill="#07074e"/><path d="M5.7 25.38h8v8h-8z" fill="#84b8e3"/><path d="M5.7 25.38H11v4.33a1 1 0 01-1 1H5.7v-5.33z" fill="#fff"/><path d="M13.7 34.13h-8a.75.75 0 01-.7-.75v-8a.74.74 0 01.75-.75h8a.75.75 0 01.75.75v8a.76.76 0 01-.8.75zm-7.25-1.5H13v-6.5H6.45z" fill="#07074e"/><path d="M5.7 33.38h8v8h-8z" fill="#84b8e3"/><path d="M5.7 33.38H11v4.33a1 1 0 01-1 1H5.7v-5.33z" fill="#fff"/><path d="M13.7 42.13h-8a.75.75 0 01-.7-.75v-8a.74.74 0 01.75-.75h8a.75.75 0 01.75.75v8a.76.76 0 01-.8.75zm-7.25-1.5H13v-6.5H6.45z" fill="#07074e"/><path d="M5.7 41.38h8v6a2 2 0 01-2 2h-6v-8z" fill="#84b8e3"/><path d="M5.7 41.38H11v4.33a1 1 0 01-1 1H5.7v-5.33z" fill="#fff"/><path d="M11.7 50.13h-6a.75.75 0 01-.7-.75v-8a.74.74 0 01.75-.75h8a.75.75 0 01.75.75v6a2.75 2.75 0 01-2.8 2.75zm-5.25-1.5h5.25a1.26 1.26 0 001.3-1.25v-5.25H6.45z" fill="#07074e"/><path d="M18.69 17.38h30v34h-30z" fill="#84b8e3"/><path d="M18.69 17.38h27v26a2 2 0 01-2 2h-25v-28z" fill="#fff"/><path d="M48.69 52.13h-30a.76.76 0 01-.75-.75v-34a.75.75 0 01.75-.75h30a.74.74 0 01.75.75v34a.75.75 0 01-.75.75zm-29.25-1.5h28.5v-32.5h-28.5z" fill="#07074e"/><path d="M25 30.88a2.06 2.06 0 01-.4-4.09 1.81 1.81 0 01-.22-.87 1.74 1.74 0 012.92-1.29 3.16 3.16 0 016.29.41 2.78 2.78 0 01-.06.58 2.51 2.51 0 01.55-.06 2.66 2.66 0 110 5.32z" fill="#fff"/><path d="M34.08 25.56a2.51 2.51 0 00-.55.06 2.78 2.78 0 00.06-.58 3.15 3.15 0 00-6.08-1.15A3.16 3.16 0 0130.59 27a2.78 2.78 0 01-.06.58 2.51 2.51 0 01.55-.06 2.66 2.66 0 012.66 2.66 2.84 2.84 0 01-.09.66h.43a2.66 2.66 0 100-5.32z" fill="#84b8e3"/><path d="M34.08 31.63H25a2.82 2.82 0 01-1.34-5.3 2.71 2.71 0 010-.41 2.51 2.51 0 012.51-2.5 2.75 2.75 0 01.7.1 3.91 3.91 0 017.5 1.3 3.41 3.41 0 01-.25 6.81zm-7.95-6.71a1 1 0 00-1 1 1 1 0 00.14.5.77.77 0 010 .68.73.73 0 01-.54.42 1.32 1.32 0 00.27 2.61h9.08a1.91 1.91 0 10-.39-3.78.75.75 0 01-.89-.87 3.13 3.13 0 000-.44 2.41 2.41 0 00-4.79-.32.75.75 0 01-1.25.46 1 1 0 00-.63-.26z" fill="#07074e"/><path d="M28.2 35.38l-9.51 16H37.7l-9.5-16z" fill="#84b8e3"/><path d="M28.2 35.38l-9.51 16h7l2.51-16z" fill="#fff"/><path d="M37.7 52.13h-19a.76.76 0 01-.65-.38.75.75 0 010-.75l9.5-16a.76.76 0 01.65-.37.74.74 0 01.64.37l9.5 16a.75.75 0 010 .75.78.78 0 01-.64.38zM20 50.63h16.38L28.2 36.85z" fill="#07074e"/><path d="M36.55 41.03l-6.14 10.35H42.7l-6.15-10.35z" fill="#84b8e3"/><path d="M36.55 41.03l-6.14 10.35h5.29l.85-10.35z" fill="#fff"/><path d="M42.7 52.13H30.41a.76.76 0 01-.65-1.13l6.15-10.35a.78.78 0 011.29 0L43.34 51a.75.75 0 010 .75.76.76 0 01-.64.38zm-11-1.5h9.65l-4.8-8.13zm-7.31-42.5H12.7a.75.75 0 110-1.5h11.69a.75.75 0 010 1.5zm6.31 0h-2.3a.75.75 0 110-1.5h2.3a.75.75 0 010 1.5z" fill="#07074e"/><rect width="23" height="34" x="40.7" y="5.38" fill="#84b8e3" rx="2"/><path d="M42.7 5.38h18.5v27.5a3.5 3.5 0 01-3.5 3.5h-17v-29a2 2 0 012-2z" fill="#fff"/><path d="M61.7 40.13h-19a2.75 2.75 0 01-2.7-2.75v-30a2.75 2.75 0 012.7-2.75h19a2.75 2.75 0 012.75 2.75v30a2.76 2.76 0 01-2.75 2.75zm-19-34a1.25 1.25 0 00-1.25 1.25v30a1.25 1.25 0 001.25 1.25h19a1.25 1.25 0 001.3-1.25v-30a1.25 1.25 0 00-1.3-1.25z" fill="#07074e"/><path d="M60.2 12.63h-16a.75.75 0 010-1.5h16a.75.75 0 010 1.5zm0 7h-16a.75.75 0 010-1.5h16a.75.75 0 010 1.5zm0 7h-16a.75.75 0 010-1.5h16a.75.75 0 010 1.5zm0 7h-16a.75.75 0 010-1.5h16a.75.75 0 010 1.5z" fill="#07074e"/><circle cx="46.7" cy="11.85" r="2.5" fill="#84b8e3"/><path d="M46.7 15.1a3.25 3.25 0 113.3-3.25 3.25 3.25 0 01-3.3 3.25zm0-5a1.75 1.75 0 101.75 1.75 1.75 1.75 0 00-1.75-1.75z" fill="#07074e"/><circle cx="55.7" cy="18.85" r="2.5" fill="#84b8e3"/><path d="M55.7 22.1a3.25 3.25 0 113.3-3.25 3.24 3.24 0 01-3.3 3.25zm0-5a1.75 1.75 0 101.75 1.75 1.75 1.75 0 00-1.75-1.75z" fill="#07074e"/><circle cx="49.7" cy="25.85" r="2.5" fill="#84b8e3"/><path d="M49.7 29.1a3.25 3.25 0 113.3-3.25 3.24 3.24 0 01-3.3 3.25zm0-5a1.75 1.75 0 101.75 1.75 1.75 1.75 0 00-1.75-1.75z" fill="#07074e"/><circle cx="57.7" cy="32.85" r="2.5" fill="#84b8e3"/><path d="M57.7 36.1a3.25 3.25 0 113.3-3.25 3.24 3.24 0 01-3.3 3.25zm0-5a1.75 1.75 0 101.75 1.75 1.75 1.75 0 00-1.75-1.75z" fill="#07074e"/><path d="M53.7 44.38l10 3.43-4.55 2.02-2.02 4.55-3.43-10z" fill="#84b8e3"/><path d="M57.13 55.13a.77.77 0 01-.67-.51l-3.46-10a.72.72 0 01.18-.77.75.75 0 01.77-.18l10 3.43a.76.76 0 01.05 1.4l-4.28 1.9-1.91 4.28a.75.75 0 01-.68.45zm-2.23-9.54l2.32 6.74 1.24-2.8a.74.74 0 01.38-.38l2.81-1.25z" fill="#07074e"/></g></g></svg></svg>